G04 #@! TF.FileFunction,Copper,L1,Top,Signal*
%FSLAX46Y46*%
G04 Gerber Fmt 4.6, Leading zero omitted, Abs format (unit mm)*
G04 Created by KiCad (PCBNEW 4.0.1-stable) date 3/12/2016 12:27:59 PM*
%MOMM*%
G01*
G04 APERTURE LIST*
%ADD10C,0.100000*%
%ADD11R,1.250000X1.000000*%
%ADD12R,0.400000X1.350000*%
%ADD13R,2.100000X1.600000*%
%ADD14R,1.900000X1.900000*%
%ADD15R,1.800000X1.900000*%
%ADD16C,1.524000*%
%ADD17R,0.700000X1.300000*%
%ADD18R,1.300000X0.700000*%
%ADD19R,1.060000X0.650000*%
%ADD20C,0.685800*%
%ADD21C,0.508000*%
%ADD22C,0.254000*%
G04 APERTURE END LIST*
D10*
D11*
X92651256Y-93760308D03*
X92651256Y-95760308D03*
X92710000Y-105629200D03*
X92710000Y-107629200D03*
X92760800Y-117160800D03*
X92760800Y-119160800D03*
X100330000Y-93361000D03*
X100330000Y-95361000D03*
X100431600Y-104968800D03*
X100431600Y-106968800D03*
X99822000Y-116703600D03*
X99822000Y-118703600D03*
X119824500Y-100822000D03*
X119824500Y-98822000D03*
X119824500Y-112556800D03*
X119824500Y-110556800D03*
X113233200Y-101396800D03*
X113233200Y-99396800D03*
X113233200Y-112963200D03*
X113233200Y-110963200D03*
D12*
X110780500Y-93607000D03*
X110130500Y-93607000D03*
X109480500Y-93607000D03*
X108830500Y-93607000D03*
X108180500Y-93607000D03*
D13*
X112580500Y-93482000D03*
X106380500Y-93482000D03*
D14*
X110680500Y-90932000D03*
X108280500Y-90932000D03*
D15*
X105480500Y-90932000D03*
X113480500Y-90932000D03*
D16*
X102743000Y-93091000D03*
X102743000Y-95591000D03*
X102852800Y-104769600D03*
X102852800Y-107269600D03*
X102852800Y-116504400D03*
X102852800Y-119004400D03*
X110354800Y-101580000D03*
X110354800Y-99080000D03*
X110354800Y-113213200D03*
X110354800Y-110713200D03*
D17*
X98813256Y-98062308D03*
X100713256Y-98062308D03*
X99278400Y-109880400D03*
X101178400Y-109880400D03*
X99227600Y-121970800D03*
X101127600Y-121970800D03*
X95379256Y-98189308D03*
X93479256Y-98189308D03*
X95539600Y-110236000D03*
X93639600Y-110236000D03*
X95590400Y-121970800D03*
X93690400Y-121970800D03*
X95440256Y-100602308D03*
X93540256Y-100602308D03*
X95488800Y-112674400D03*
X93588800Y-112674400D03*
D18*
X105600500Y-122870000D03*
X105600500Y-120970000D03*
D17*
X114640400Y-96926400D03*
X112740400Y-96926400D03*
X114640400Y-108610400D03*
X112740400Y-108610400D03*
X118239500Y-96774000D03*
X120139500Y-96774000D03*
X118239500Y-108394500D03*
X120139500Y-108394500D03*
X118239500Y-94551500D03*
X120139500Y-94551500D03*
X118239500Y-106108500D03*
X120139500Y-106108500D03*
D19*
X97477256Y-95710308D03*
X97477256Y-94760308D03*
X97477256Y-93810308D03*
X95277256Y-93810308D03*
X95277256Y-95710308D03*
X97518400Y-107426800D03*
X97518400Y-106476800D03*
X97518400Y-105526800D03*
X95318400Y-105526800D03*
X95318400Y-107426800D03*
X97518400Y-119110800D03*
X97518400Y-118160800D03*
X97518400Y-117210800D03*
X95318400Y-117210800D03*
X95318400Y-119110800D03*
X115638400Y-98922800D03*
X115638400Y-99872800D03*
X115638400Y-100822800D03*
X117838400Y-100822800D03*
X117838400Y-98922800D03*
X115689200Y-110606800D03*
X115689200Y-111556800D03*
X115689200Y-112506800D03*
X117889200Y-112506800D03*
X117889200Y-110606800D03*
D20*
X119951500Y-103187500D03*
X93091000Y-114681000D03*
X92773500Y-102362000D03*
X103187500Y-90170000D03*
X102743000Y-98044000D03*
X102768400Y-109880400D03*
X102819200Y-121970800D03*
X110337600Y-96926400D03*
X110388400Y-108610400D03*
D21*
X121285000Y-99568000D02*
X121285000Y-103187500D01*
X121285000Y-103187500D02*
X121285000Y-111221300D01*
X119951500Y-103187500D02*
X120436433Y-103187500D01*
X120436433Y-103187500D02*
X121285000Y-103187500D01*
X91440000Y-106774200D02*
X91440000Y-114681000D01*
X91440000Y-114681000D02*
X91440000Y-116973000D01*
X92606067Y-114681000D02*
X91440000Y-114681000D01*
X93091000Y-114681000D02*
X92606067Y-114681000D01*
X91440000Y-94846564D02*
X91440000Y-102298500D01*
X91440000Y-102298500D02*
X91440000Y-103351200D01*
X92773500Y-102362000D02*
X91503500Y-102362000D01*
X91503500Y-102362000D02*
X91440000Y-102298500D01*
X100243564Y-88011000D02*
X101028500Y-88011000D01*
X101028500Y-88011000D02*
X118110000Y-88011000D01*
X102844601Y-89827101D02*
X101028500Y-88011000D01*
X103187500Y-90170000D02*
X102844601Y-89827101D01*
X119824500Y-89725500D02*
X119761000Y-89725500D01*
X119761000Y-89725500D02*
X114236500Y-95250000D01*
X114236500Y-95250000D02*
X111188500Y-95250000D01*
X111188500Y-95250000D02*
X110838501Y-94900001D01*
X110838501Y-94900001D02*
X110838501Y-94688401D01*
X110838501Y-94688401D02*
X110838501Y-93607000D01*
X119824500Y-89725500D02*
X121285000Y-91186000D01*
X118110000Y-88011000D02*
X119824500Y-89725500D01*
X121285000Y-91186000D02*
X121285000Y-99568000D01*
X119824500Y-100822000D02*
X120957500Y-100822000D01*
X120957500Y-100822000D02*
X121285000Y-100494500D01*
X121285000Y-100494500D02*
X121285000Y-99568000D01*
X95277256Y-93810308D02*
X95277256Y-92977308D01*
X95277256Y-92977308D02*
X100243564Y-88011000D01*
X121285000Y-111221300D02*
X119949500Y-112556800D01*
X119949500Y-112556800D02*
X119824500Y-112556800D01*
X119824500Y-100822000D02*
X117839200Y-100822000D01*
X117839200Y-100822000D02*
X117838400Y-100822800D01*
X117889200Y-112506800D02*
X119774500Y-112506800D01*
X119774500Y-112506800D02*
X119824500Y-112556800D01*
X91440000Y-103351200D02*
X92710000Y-104621200D01*
X92710000Y-104621200D02*
X92710000Y-105629200D01*
X92651256Y-93760308D02*
X92526256Y-93760308D01*
X92526256Y-93760308D02*
X91440000Y-94846564D01*
X92710000Y-105629200D02*
X92585000Y-105629200D01*
X92585000Y-105629200D02*
X91440000Y-106774200D01*
X91440000Y-116973000D02*
X91627800Y-117160800D01*
X91627800Y-117160800D02*
X92760800Y-117160800D01*
X95318400Y-117210800D02*
X95523400Y-117210800D01*
X92760800Y-117160800D02*
X95268400Y-117160800D01*
X95268400Y-117160800D02*
X95318400Y-117210800D01*
X95318400Y-105526800D02*
X92812400Y-105526800D01*
X92812400Y-105526800D02*
X92710000Y-105629200D01*
X95277256Y-93810308D02*
X92701256Y-93810308D01*
X92701256Y-93810308D02*
X92651256Y-93760308D01*
X102743000Y-95591000D02*
X107219900Y-95591000D01*
X107219900Y-95591000D02*
X108122499Y-94688401D01*
X108122499Y-94688401D02*
X108122499Y-93607000D01*
X120139500Y-108394500D02*
X120139500Y-106108500D01*
X119824500Y-110556800D02*
X119824500Y-108709500D01*
X119824500Y-108709500D02*
X120139500Y-108394500D01*
X115689200Y-111556800D02*
X118824500Y-111556800D01*
X118824500Y-111556800D02*
X119824500Y-110556800D01*
X120139500Y-96774000D02*
X120139500Y-94551500D01*
X119824500Y-98822000D02*
X119824500Y-97089000D01*
X119824500Y-97089000D02*
X120139500Y-96774000D01*
X115638400Y-99872800D02*
X118773700Y-99872800D01*
X118773700Y-99872800D02*
X119824500Y-98822000D01*
X93690400Y-121970800D02*
X93690400Y-120090400D01*
X93690400Y-120090400D02*
X92760800Y-119160800D01*
X120407398Y-110556800D02*
X120446800Y-110556800D01*
X115689200Y-111556800D02*
X113826800Y-111556800D01*
X113826800Y-111556800D02*
X113233200Y-110963200D01*
X113233200Y-110963200D02*
X110604800Y-110963200D01*
X110604800Y-110963200D02*
X110354800Y-110713200D01*
X113233200Y-99396800D02*
X110671600Y-99396800D01*
X110671600Y-99396800D02*
X110354800Y-99080000D01*
X115638400Y-99872800D02*
X113709200Y-99872800D01*
X113709200Y-99872800D02*
X113233200Y-99396800D01*
X97518400Y-106476800D02*
X93987400Y-106476800D01*
X93987400Y-106476800D02*
X92835000Y-107629200D01*
X92835000Y-107629200D02*
X92710000Y-107629200D01*
X92760800Y-119160800D02*
X93498998Y-119160800D01*
X93498998Y-119160800D02*
X94498998Y-118160800D01*
X94498998Y-118160800D02*
X96480400Y-118160800D01*
X96480400Y-118160800D02*
X97518400Y-118160800D01*
X99822000Y-118703600D02*
X99279200Y-118160800D01*
X99279200Y-118160800D02*
X97518400Y-118160800D01*
X102565200Y-119024400D02*
X100142800Y-119024400D01*
X100142800Y-119024400D02*
X99822000Y-118703600D01*
X93639600Y-110236000D02*
X93639600Y-108558800D01*
X93639600Y-108558800D02*
X92710000Y-107629200D01*
X93588800Y-112674400D02*
X93588800Y-110286800D01*
X93588800Y-110286800D02*
X93639600Y-110236000D01*
X100431600Y-106968800D02*
X99939600Y-106476800D01*
X99939600Y-106476800D02*
X97518400Y-106476800D01*
X102852800Y-107269600D02*
X100732400Y-107269600D01*
X100732400Y-107269600D02*
X100431600Y-106968800D01*
X100330000Y-95361000D02*
X102513000Y-95361000D01*
X102513000Y-95361000D02*
X102743000Y-95591000D01*
X97477256Y-94760308D02*
X99729308Y-94760308D01*
X99729308Y-94760308D02*
X100330000Y-95361000D01*
X93479256Y-98189308D02*
X93479256Y-100541308D01*
X93479256Y-100541308D02*
X93540256Y-100602308D01*
X92651256Y-95760308D02*
X92651256Y-97361308D01*
X92651256Y-97361308D02*
X93479256Y-98189308D01*
X97477256Y-94760308D02*
X93690658Y-94760308D01*
X93690658Y-94760308D02*
X92690658Y-95760308D01*
X92690658Y-95760308D02*
X92651256Y-95760308D01*
X100330000Y-93361000D02*
X97926564Y-93361000D01*
X97926564Y-93361000D02*
X97477256Y-93810308D01*
X102743000Y-93091000D02*
X100600000Y-93091000D01*
X100600000Y-93091000D02*
X100330000Y-93361000D01*
X100431600Y-104968800D02*
X99298600Y-104968800D01*
X99298600Y-104968800D02*
X98740600Y-105526800D01*
X98740600Y-105526800D02*
X97518400Y-105526800D01*
X102852800Y-104769600D02*
X100630800Y-104769600D01*
X100630800Y-104769600D02*
X100431600Y-104968800D01*
X99822000Y-116703600D02*
X98025600Y-116703600D01*
X98025600Y-116703600D02*
X97518400Y-117210800D01*
X102565200Y-116524400D02*
X100001200Y-116524400D01*
X100001200Y-116524400D02*
X99822000Y-116703600D01*
X113233200Y-101396800D02*
X115064400Y-101396800D01*
X115064400Y-101396800D02*
X115638400Y-100822800D01*
X113233200Y-101396800D02*
X110538000Y-101396800D01*
X110538000Y-101396800D02*
X110354800Y-101580000D01*
X113233200Y-112963200D02*
X115232800Y-112963200D01*
X115232800Y-112963200D02*
X115689200Y-112506800D01*
X110354800Y-113213200D02*
X112983200Y-113213200D01*
X112983200Y-113213200D02*
X113233200Y-112963200D01*
X100713256Y-98062308D02*
X102724692Y-98062308D01*
X102724692Y-98062308D02*
X102743000Y-98044000D01*
X101178400Y-109880400D02*
X102768400Y-109880400D01*
X101127600Y-121970800D02*
X102819200Y-121970800D01*
X112740400Y-96926400D02*
X110337600Y-96926400D01*
X112740400Y-108610400D02*
X110388400Y-108610400D01*
X98813256Y-98062308D02*
X97955256Y-98062308D01*
X97955256Y-98062308D02*
X97477256Y-97584308D01*
X97477256Y-97584308D02*
X97477256Y-95710308D01*
X99278400Y-109880400D02*
X98420400Y-109880400D01*
X98420400Y-109880400D02*
X97518400Y-108978400D01*
X97518400Y-108978400D02*
X97518400Y-107426800D01*
X99227600Y-121970800D02*
X98369600Y-121970800D01*
X98369600Y-121970800D02*
X97518400Y-121119600D01*
X97518400Y-121119600D02*
X97518400Y-119110800D01*
X95379256Y-98189308D02*
X95379256Y-95812308D01*
X95379256Y-95812308D02*
X95277256Y-95710308D01*
X95440256Y-100602308D02*
X95440256Y-98250308D01*
X95440256Y-98250308D02*
X95379256Y-98189308D01*
X95539600Y-110236000D02*
X95539600Y-112623600D01*
X95539600Y-112623600D02*
X95488800Y-112674400D01*
X95554800Y-108610400D02*
X95539600Y-108625600D01*
X95539600Y-108625600D02*
X95539600Y-110236000D01*
X95318400Y-108374000D02*
X95554800Y-108610400D01*
X95318400Y-107426800D02*
X95318400Y-108374000D01*
X103459199Y-123128801D02*
X103718000Y-122870000D01*
X103718000Y-122870000D02*
X105600500Y-122870000D01*
X95590400Y-121970800D02*
X95590400Y-119382800D01*
X95590400Y-119382800D02*
X95318400Y-119110800D01*
X95590400Y-121970800D02*
X96448400Y-121970800D01*
X96448400Y-121970800D02*
X97606401Y-123128801D01*
X97606401Y-123128801D02*
X103459199Y-123128801D01*
X115638400Y-98922800D02*
X115638400Y-97924400D01*
X115638400Y-97924400D02*
X114640400Y-96926400D01*
X114640400Y-108610400D02*
X114640400Y-109558000D01*
X114640400Y-109558000D02*
X115689200Y-110606800D01*
X118239500Y-96774000D02*
X118239500Y-94551500D01*
X117838400Y-98922800D02*
X117838400Y-97175100D01*
X117838400Y-97175100D02*
X118239500Y-96774000D01*
X118239500Y-108394500D02*
X118239500Y-110256500D01*
X118239500Y-110256500D02*
X117889200Y-110606800D01*
X118239500Y-106108500D02*
X118239500Y-108394500D01*
D22*
G36*
X102269637Y-90509373D02*
X102357993Y-90723212D01*
X102632841Y-90998540D01*
X102992130Y-91147730D01*
X103381163Y-91148069D01*
X103740712Y-90999507D01*
X104016040Y-90724659D01*
X104018349Y-90719099D01*
X104104250Y-90805000D01*
X105353500Y-90805000D01*
X105353500Y-89505750D01*
X105607500Y-89505750D01*
X105607500Y-90805000D01*
X108153500Y-90805000D01*
X108153500Y-89505750D01*
X108407500Y-89505750D01*
X108407500Y-90805000D01*
X110553500Y-90805000D01*
X110553500Y-89505750D01*
X110807500Y-89505750D01*
X110807500Y-90805000D01*
X113353500Y-90805000D01*
X113353500Y-89505750D01*
X113607500Y-89505750D01*
X113607500Y-90805000D01*
X114856750Y-90805000D01*
X115015500Y-90646250D01*
X115015500Y-89855690D01*
X114918827Y-89622301D01*
X114740198Y-89443673D01*
X114506809Y-89347000D01*
X113766250Y-89347000D01*
X113607500Y-89505750D01*
X113353500Y-89505750D01*
X113194750Y-89347000D01*
X112454191Y-89347000D01*
X112220802Y-89443673D01*
X112105500Y-89558974D01*
X111990198Y-89443673D01*
X111756809Y-89347000D01*
X110966250Y-89347000D01*
X110807500Y-89505750D01*
X110553500Y-89505750D01*
X110394750Y-89347000D01*
X109604191Y-89347000D01*
X109480500Y-89398235D01*
X109356809Y-89347000D01*
X108566250Y-89347000D01*
X108407500Y-89505750D01*
X108153500Y-89505750D01*
X107994750Y-89347000D01*
X107204191Y-89347000D01*
X106970802Y-89443673D01*
X106855500Y-89558974D01*
X106740198Y-89443673D01*
X106506809Y-89347000D01*
X105766250Y-89347000D01*
X105607500Y-89505750D01*
X105353500Y-89505750D01*
X105194750Y-89347000D01*
X104454191Y-89347000D01*
X104220802Y-89443673D01*
X104042173Y-89622301D01*
X104030715Y-89649964D01*
X104017007Y-89616788D01*
X103742159Y-89341460D01*
X103526750Y-89252014D01*
X103174736Y-88900000D01*
X117741764Y-88900000D01*
X118535514Y-89693750D01*
X114265500Y-93963764D01*
X114265500Y-93767750D01*
X114106750Y-93609000D01*
X112707500Y-93609000D01*
X112707500Y-93629000D01*
X112453500Y-93629000D01*
X112453500Y-93609000D01*
X112433500Y-93609000D01*
X112433500Y-93355000D01*
X112453500Y-93355000D01*
X112453500Y-93335000D01*
X112707500Y-93335000D01*
X112707500Y-93355000D01*
X114106750Y-93355000D01*
X114265500Y-93196250D01*
X114265500Y-92555690D01*
X114249474Y-92517000D01*
X114506809Y-92517000D01*
X114740198Y-92420327D01*
X114918827Y-92241699D01*
X115015500Y-92008310D01*
X115015500Y-91217750D01*
X114856750Y-91059000D01*
X113607500Y-91059000D01*
X113607500Y-91079000D01*
X113353500Y-91079000D01*
X113353500Y-91059000D01*
X110807500Y-91059000D01*
X110807500Y-91079000D01*
X110553500Y-91079000D01*
X110553500Y-91059000D01*
X108407500Y-91059000D01*
X108407500Y-91079000D01*
X108153500Y-91079000D01*
X108153500Y-91059000D01*
X105607500Y-91059000D01*
X105607500Y-91079000D01*
X105353500Y-91079000D01*
X105353500Y-91059000D01*
X104104250Y-91059000D01*
X103945500Y-91217750D01*
X103945500Y-92008310D01*
X104042173Y-92241699D01*
X104220802Y-92420327D01*
X104454191Y-92517000D01*
X104711526Y-92517000D01*
X104695500Y-92555690D01*
X104695500Y-93196250D01*
X104854250Y-93355000D01*
X106253500Y-93355000D01*
X106253500Y-93335000D01*
X106507500Y-93335000D01*
X106507500Y-93355000D01*
X106527500Y-93355000D01*
X106527500Y-93609000D01*
X106507500Y-93609000D01*
X106507500Y-94758250D01*
X106666250Y-94917000D01*
X107556809Y-94917000D01*
X107705500Y-94855410D01*
X107854191Y-94917000D01*
X107921750Y-94917000D01*
X108080500Y-94758250D01*
X108080500Y-94599933D01*
X108166410Y-94733441D01*
X108378610Y-94878431D01*
X108406285Y-94884035D01*
X108439250Y-94917000D01*
X108506809Y-94917000D01*
X108527253Y-94908532D01*
X108630500Y-94929440D01*
X109030500Y-94929440D01*
X109160089Y-94905056D01*
X109280500Y-94929440D01*
X109680500Y-94929440D01*
X109810089Y-94905056D01*
X109930500Y-94929440D01*
X109955357Y-94929440D01*
X110017172Y-95240207D01*
X110175098Y-95476560D01*
X110209883Y-95528619D01*
X110559882Y-95878618D01*
X110797516Y-96037400D01*
X110746655Y-96037400D01*
X110532970Y-95948670D01*
X110143937Y-95948331D01*
X109784388Y-96096893D01*
X109509060Y-96371741D01*
X109359870Y-96731030D01*
X109359531Y-97120063D01*
X109508093Y-97479612D01*
X109782941Y-97754940D01*
X109827169Y-97773305D01*
X109623657Y-97857603D01*
X109554192Y-98099787D01*
X110354800Y-98900395D01*
X111155408Y-98099787D01*
X111085943Y-97857603D01*
X110967650Y-97815400D01*
X111789608Y-97815400D01*
X111926310Y-98027841D01*
X112138510Y-98172831D01*
X112390400Y-98223840D01*
X113090400Y-98223840D01*
X113325717Y-98179562D01*
X113541841Y-98040490D01*
X113686831Y-97828290D01*
X113689481Y-97815203D01*
X113826310Y-98027841D01*
X114038510Y-98172831D01*
X114290400Y-98223840D01*
X114595376Y-98223840D01*
X114511969Y-98345910D01*
X114460960Y-98597800D01*
X114460960Y-98692657D01*
X114396527Y-98537102D01*
X114217899Y-98358473D01*
X113984510Y-98261800D01*
X113518950Y-98261800D01*
X113360200Y-98420550D01*
X113360200Y-99269800D01*
X113380200Y-99269800D01*
X113380200Y-99523800D01*
X113360200Y-99523800D01*
X113360200Y-99543800D01*
X113106200Y-99543800D01*
X113106200Y-99523800D01*
X112131950Y-99523800D01*
X111973200Y-99682550D01*
X111973200Y-100023109D01*
X112069873Y-100256498D01*
X112211110Y-100397736D01*
X112156759Y-100432710D01*
X112105452Y-100507800D01*
X111258405Y-100507800D01*
X111147170Y-100396371D01*
X111003297Y-100336630D01*
X111085943Y-100302397D01*
X111155408Y-100060213D01*
X110354800Y-99259605D01*
X109554192Y-100060213D01*
X109623657Y-100302397D01*
X109712167Y-100333974D01*
X109564497Y-100394990D01*
X109171171Y-100787630D01*
X108958043Y-101300900D01*
X108957558Y-101856661D01*
X109169790Y-102370303D01*
X109562430Y-102763629D01*
X110075700Y-102976757D01*
X110631461Y-102977242D01*
X111145103Y-102765010D01*
X111538429Y-102372370D01*
X111574376Y-102285800D01*
X112103930Y-102285800D01*
X112144110Y-102348241D01*
X112356310Y-102493231D01*
X112608200Y-102544240D01*
X113858200Y-102544240D01*
X114093517Y-102499962D01*
X114309641Y-102360890D01*
X114360948Y-102285800D01*
X115064400Y-102285800D01*
X115404606Y-102218129D01*
X115693018Y-102025418D01*
X115923196Y-101795240D01*
X116168400Y-101795240D01*
X116403717Y-101750962D01*
X116619841Y-101611890D01*
X116739633Y-101436568D01*
X116844310Y-101599241D01*
X117056510Y-101744231D01*
X117308400Y-101795240D01*
X118368400Y-101795240D01*
X118603717Y-101750962D01*
X118665820Y-101711000D01*
X118695230Y-101711000D01*
X118735410Y-101773441D01*
X118947610Y-101918431D01*
X119199500Y-101969440D01*
X120396000Y-101969440D01*
X120396000Y-102298500D01*
X120360555Y-102298500D01*
X120146870Y-102209770D01*
X119757837Y-102209431D01*
X119398288Y-102357993D01*
X119122960Y-102632841D01*
X118973770Y-102992130D01*
X118973431Y-103381163D01*
X119121993Y-103740712D01*
X119396841Y-104016040D01*
X119756130Y-104165230D01*
X120145163Y-104165569D01*
X120360727Y-104076500D01*
X120396000Y-104076500D01*
X120396000Y-104852750D01*
X120266500Y-104982250D01*
X120266500Y-105981500D01*
X120286500Y-105981500D01*
X120286500Y-106235500D01*
X120266500Y-106235500D01*
X120266500Y-107234750D01*
X120283250Y-107251500D01*
X120266500Y-107268250D01*
X120266500Y-108267500D01*
X120286500Y-108267500D01*
X120286500Y-108521500D01*
X120266500Y-108521500D01*
X120266500Y-108541500D01*
X120012500Y-108541500D01*
X120012500Y-108521500D01*
X119992500Y-108521500D01*
X119992500Y-108267500D01*
X120012500Y-108267500D01*
X120012500Y-107268250D01*
X119995750Y-107251500D01*
X120012500Y-107234750D01*
X120012500Y-106235500D01*
X119992500Y-106235500D01*
X119992500Y-105981500D01*
X120012500Y-105981500D01*
X120012500Y-104982250D01*
X119853750Y-104823500D01*
X119663191Y-104823500D01*
X119429802Y-104920173D01*
X119251173Y-105098801D01*
X119194846Y-105234787D01*
X119192662Y-105223183D01*
X119053590Y-105007059D01*
X118841390Y-104862069D01*
X118589500Y-104811060D01*
X117889500Y-104811060D01*
X117654183Y-104855338D01*
X117438059Y-104994410D01*
X117293069Y-105206610D01*
X117242060Y-105458500D01*
X117242060Y-106758500D01*
X117286338Y-106993817D01*
X117350500Y-107093528D01*
X117350500Y-107408557D01*
X117293069Y-107492610D01*
X117242060Y-107744500D01*
X117242060Y-109044500D01*
X117286338Y-109279817D01*
X117350500Y-109379528D01*
X117350500Y-109635997D01*
X117123883Y-109678638D01*
X116907759Y-109817710D01*
X116787967Y-109993032D01*
X116683290Y-109830359D01*
X116471090Y-109685369D01*
X116219200Y-109634360D01*
X115973996Y-109634360D01*
X115631474Y-109291838D01*
X115637840Y-109260400D01*
X115637840Y-107960400D01*
X115593562Y-107725083D01*
X115454490Y-107508959D01*
X115242290Y-107363969D01*
X114990400Y-107312960D01*
X114290400Y-107312960D01*
X114055083Y-107357238D01*
X113838959Y-107496310D01*
X113693969Y-107708510D01*
X113691319Y-107721597D01*
X113554490Y-107508959D01*
X113342290Y-107363969D01*
X113090400Y-107312960D01*
X112390400Y-107312960D01*
X112155083Y-107357238D01*
X111938959Y-107496310D01*
X111793969Y-107708510D01*
X111791359Y-107721400D01*
X110797455Y-107721400D01*
X110583770Y-107632670D01*
X110194737Y-107632331D01*
X109835188Y-107780893D01*
X109559860Y-108055741D01*
X109410670Y-108415030D01*
X109410331Y-108804063D01*
X109558893Y-109163612D01*
X109808912Y-109414068D01*
X109623657Y-109490803D01*
X109554192Y-109732987D01*
X110354800Y-110533595D01*
X111155408Y-109732987D01*
X111088409Y-109499400D01*
X111789608Y-109499400D01*
X111926310Y-109711841D01*
X112138510Y-109856831D01*
X112322713Y-109894133D01*
X112248501Y-109924873D01*
X112069873Y-110103502D01*
X111973200Y-110336891D01*
X111973200Y-110677450D01*
X112131950Y-110836200D01*
X113106200Y-110836200D01*
X113106200Y-110816200D01*
X113360200Y-110816200D01*
X113360200Y-110836200D01*
X114334450Y-110836200D01*
X114493200Y-110677450D01*
X114493200Y-110668036D01*
X114511760Y-110686596D01*
X114511760Y-110931800D01*
X114538119Y-111071886D01*
X114524200Y-111105490D01*
X114524200Y-111271050D01*
X114682950Y-111429800D01*
X114763251Y-111429800D01*
X114907310Y-111528231D01*
X115044320Y-111555976D01*
X114923883Y-111578638D01*
X114760457Y-111683800D01*
X114682950Y-111683800D01*
X114524200Y-111842550D01*
X114524200Y-112008110D01*
X114539468Y-112044971D01*
X114533550Y-112074200D01*
X114362470Y-112074200D01*
X114322290Y-112011759D01*
X114254194Y-111965231D01*
X114396527Y-111822898D01*
X114493200Y-111589509D01*
X114493200Y-111248950D01*
X114334450Y-111090200D01*
X113360200Y-111090200D01*
X113360200Y-111110200D01*
X113106200Y-111110200D01*
X113106200Y-111090200D01*
X112131950Y-111090200D01*
X111973200Y-111248950D01*
X111973200Y-111589509D01*
X112069873Y-111822898D01*
X112211110Y-111964136D01*
X112156759Y-111999110D01*
X112011769Y-112211310D01*
X111988908Y-112324200D01*
X111441285Y-112324200D01*
X111147170Y-112029571D01*
X111003297Y-111969830D01*
X111085943Y-111935597D01*
X111155408Y-111693413D01*
X110354800Y-110892805D01*
X109554192Y-111693413D01*
X109623657Y-111935597D01*
X109712167Y-111967174D01*
X109564497Y-112028190D01*
X109171171Y-112420830D01*
X108958043Y-112934100D01*
X108957558Y-113489861D01*
X109169790Y-114003503D01*
X109562430Y-114396829D01*
X110075700Y-114609957D01*
X110631461Y-114610442D01*
X111145103Y-114398210D01*
X111441630Y-114102200D01*
X112566522Y-114102200D01*
X112608200Y-114110640D01*
X113858200Y-114110640D01*
X114093517Y-114066362D01*
X114309641Y-113927290D01*
X114360948Y-113852200D01*
X115232800Y-113852200D01*
X115573006Y-113784529D01*
X115861418Y-113591818D01*
X115973996Y-113479240D01*
X116219200Y-113479240D01*
X116454517Y-113434962D01*
X116670641Y-113295890D01*
X116790433Y-113120568D01*
X116895110Y-113283241D01*
X117107310Y-113428231D01*
X117359200Y-113479240D01*
X118419200Y-113479240D01*
X118654517Y-113434962D01*
X118678377Y-113419609D01*
X118735410Y-113508241D01*
X118947610Y-113653231D01*
X119199500Y-113704240D01*
X120449500Y-113704240D01*
X120684817Y-113659962D01*
X120900941Y-113520890D01*
X121045931Y-113308690D01*
X121096940Y-113056800D01*
X121096940Y-112666596D01*
X121185000Y-112578536D01*
X121185000Y-123063000D01*
X106897940Y-123063000D01*
X106897940Y-122520000D01*
X106853662Y-122284683D01*
X106714590Y-122068559D01*
X106502390Y-121923569D01*
X106469010Y-121916809D01*
X106610199Y-121858327D01*
X106788827Y-121679698D01*
X106885500Y-121446309D01*
X106885500Y-121255750D01*
X106726750Y-121097000D01*
X105727500Y-121097000D01*
X105727500Y-121117000D01*
X105473500Y-121117000D01*
X105473500Y-121097000D01*
X104474250Y-121097000D01*
X104315500Y-121255750D01*
X104315500Y-121446309D01*
X104412173Y-121679698D01*
X104590801Y-121858327D01*
X104726787Y-121914654D01*
X104715183Y-121916838D01*
X104615472Y-121981000D01*
X103797091Y-121981000D01*
X103797269Y-121777137D01*
X103648707Y-121417588D01*
X103373859Y-121142260D01*
X103014570Y-120993070D01*
X102625537Y-120992731D01*
X102409973Y-121081800D01*
X102078392Y-121081800D01*
X101941690Y-120869359D01*
X101729490Y-120724369D01*
X101477600Y-120673360D01*
X100777600Y-120673360D01*
X100542283Y-120717638D01*
X100326159Y-120856710D01*
X100181169Y-121068910D01*
X100178519Y-121081997D01*
X100041690Y-120869359D01*
X99829490Y-120724369D01*
X99577600Y-120673360D01*
X98877600Y-120673360D01*
X98642283Y-120717638D01*
X98478844Y-120822808D01*
X98407400Y-120751364D01*
X98407400Y-120493691D01*
X104315500Y-120493691D01*
X104315500Y-120684250D01*
X104474250Y-120843000D01*
X105473500Y-120843000D01*
X105473500Y-120143750D01*
X105727500Y-120143750D01*
X105727500Y-120843000D01*
X106726750Y-120843000D01*
X106885500Y-120684250D01*
X106885500Y-120493691D01*
X106788827Y-120260302D01*
X106610199Y-120081673D01*
X106376810Y-119985000D01*
X105886250Y-119985000D01*
X105727500Y-120143750D01*
X105473500Y-120143750D01*
X105314750Y-119985000D01*
X104824190Y-119985000D01*
X104590801Y-120081673D01*
X104412173Y-120260302D01*
X104315500Y-120493691D01*
X98407400Y-120493691D01*
X98407400Y-119984613D01*
X102052192Y-119984613D01*
X102121657Y-120226797D01*
X102645102Y-120413544D01*
X103200168Y-120385762D01*
X103583943Y-120226797D01*
X103653408Y-119984613D01*
X102852800Y-119184005D01*
X102052192Y-119984613D01*
X98407400Y-119984613D01*
X98407400Y-119959374D01*
X98499841Y-119899890D01*
X98644831Y-119687690D01*
X98668110Y-119572735D01*
X98837301Y-119741927D01*
X99070690Y-119838600D01*
X99536250Y-119838600D01*
X99695000Y-119679850D01*
X99695000Y-118830600D01*
X99949000Y-118830600D01*
X99949000Y-119679850D01*
X100107750Y-119838600D01*
X100573310Y-119838600D01*
X100806699Y-119741927D01*
X100985327Y-119563298D01*
X101082000Y-119329909D01*
X101082000Y-118989350D01*
X100923250Y-118830600D01*
X99949000Y-118830600D01*
X99695000Y-118830600D01*
X99675000Y-118830600D01*
X99675000Y-118796702D01*
X101443656Y-118796702D01*
X101471438Y-119351768D01*
X101630403Y-119735543D01*
X101872587Y-119805008D01*
X102673195Y-119004400D01*
X103032405Y-119004400D01*
X103833013Y-119805008D01*
X104075197Y-119735543D01*
X104261944Y-119212098D01*
X104234162Y-118657032D01*
X104075197Y-118273257D01*
X103833013Y-118203792D01*
X103032405Y-119004400D01*
X102673195Y-119004400D01*
X101872587Y-118203792D01*
X101630403Y-118273257D01*
X101443656Y-118796702D01*
X99675000Y-118796702D01*
X99675000Y-118576600D01*
X99695000Y-118576600D01*
X99695000Y-118556600D01*
X99949000Y-118556600D01*
X99949000Y-118576600D01*
X100923250Y-118576600D01*
X101082000Y-118417850D01*
X101082000Y-118077291D01*
X100985327Y-117843902D01*
X100844090Y-117702664D01*
X100898441Y-117667690D01*
X101043431Y-117455490D01*
X101051954Y-117413400D01*
X101786280Y-117413400D01*
X102060430Y-117688029D01*
X102204303Y-117747770D01*
X102121657Y-117782003D01*
X102052192Y-118024187D01*
X102852800Y-118824795D01*
X103653408Y-118024187D01*
X103583943Y-117782003D01*
X103495433Y-117750426D01*
X103643103Y-117689410D01*
X104036429Y-117296770D01*
X104249557Y-116783500D01*
X104250042Y-116227739D01*
X104037810Y-115714097D01*
X103645170Y-115320771D01*
X103131900Y-115107643D01*
X102576139Y-115107158D01*
X102062497Y-115319390D01*
X101745935Y-115635400D01*
X100740207Y-115635400D01*
X100698890Y-115607169D01*
X100447000Y-115556160D01*
X99197000Y-115556160D01*
X98961683Y-115600438D01*
X98745559Y-115739510D01*
X98694252Y-115814600D01*
X98025600Y-115814600D01*
X97685394Y-115882271D01*
X97396982Y-116074982D01*
X97233604Y-116238360D01*
X96988400Y-116238360D01*
X96753083Y-116282638D01*
X96536959Y-116421710D01*
X96417167Y-116597032D01*
X96312490Y-116434359D01*
X96100290Y-116289369D01*
X95848400Y-116238360D01*
X94788400Y-116238360D01*
X94610682Y-116271800D01*
X93890070Y-116271800D01*
X93849890Y-116209359D01*
X93637690Y-116064369D01*
X93385800Y-116013360D01*
X92329000Y-116013360D01*
X92329000Y-115570000D01*
X92681945Y-115570000D01*
X92895630Y-115658730D01*
X93284663Y-115659069D01*
X93644212Y-115510507D01*
X93919540Y-115235659D01*
X94068730Y-114876370D01*
X94069069Y-114487337D01*
X93920507Y-114127788D01*
X93715802Y-113922725D01*
X93715802Y-113800652D01*
X93874550Y-113959400D01*
X94065109Y-113959400D01*
X94298498Y-113862727D01*
X94477127Y-113684099D01*
X94533454Y-113548113D01*
X94535638Y-113559717D01*
X94674710Y-113775841D01*
X94886910Y-113920831D01*
X95138800Y-113971840D01*
X95838800Y-113971840D01*
X96074117Y-113927562D01*
X96290241Y-113788490D01*
X96435231Y-113576290D01*
X96486240Y-113324400D01*
X96486240Y-112024400D01*
X96441962Y-111789083D01*
X96428600Y-111768318D01*
X96428600Y-111221943D01*
X96486031Y-111137890D01*
X96537040Y-110886000D01*
X96537040Y-109586000D01*
X96492762Y-109350683D01*
X96428600Y-109250972D01*
X96428600Y-108686816D01*
X96443800Y-108610400D01*
X96376129Y-108270195D01*
X96320066Y-108186290D01*
X96419633Y-108040568D01*
X96524310Y-108203241D01*
X96629400Y-108275046D01*
X96629400Y-108978400D01*
X96697071Y-109318606D01*
X96845132Y-109540194D01*
X96889782Y-109607018D01*
X97791782Y-110509018D01*
X98080195Y-110701730D01*
X98322258Y-110749879D01*
X98325238Y-110765717D01*
X98464310Y-110981841D01*
X98676510Y-111126831D01*
X98928400Y-111177840D01*
X99628400Y-111177840D01*
X99863717Y-111133562D01*
X100079841Y-110994490D01*
X100224831Y-110782290D01*
X100227481Y-110769203D01*
X100364310Y-110981841D01*
X100576510Y-111126831D01*
X100828400Y-111177840D01*
X101528400Y-111177840D01*
X101763717Y-111133562D01*
X101979841Y-110994490D01*
X102124831Y-110782290D01*
X102127441Y-110769400D01*
X102359345Y-110769400D01*
X102573030Y-110858130D01*
X102962063Y-110858469D01*
X103321612Y-110709907D01*
X103526373Y-110505502D01*
X108945656Y-110505502D01*
X108973438Y-111060568D01*
X109132403Y-111444343D01*
X109374587Y-111513808D01*
X110175195Y-110713200D01*
X110534405Y-110713200D01*
X111335013Y-111513808D01*
X111577197Y-111444343D01*
X111763944Y-110920898D01*
X111736162Y-110365832D01*
X111577197Y-109982057D01*
X111335013Y-109912592D01*
X110534405Y-110713200D01*
X110175195Y-110713200D01*
X109374587Y-109912592D01*
X109132403Y-109982057D01*
X108945656Y-110505502D01*
X103526373Y-110505502D01*
X103596940Y-110435059D01*
X103746130Y-110075770D01*
X103746469Y-109686737D01*
X103597907Y-109327188D01*
X103323059Y-109051860D01*
X102963770Y-108902670D01*
X102574737Y-108902331D01*
X102359173Y-108991400D01*
X102129192Y-108991400D01*
X101992490Y-108778959D01*
X101780290Y-108633969D01*
X101528400Y-108582960D01*
X100828400Y-108582960D01*
X100593083Y-108627238D01*
X100376959Y-108766310D01*
X100231969Y-108978510D01*
X100229319Y-108991597D01*
X100092490Y-108778959D01*
X99880290Y-108633969D01*
X99628400Y-108582960D01*
X98928400Y-108582960D01*
X98693083Y-108627238D01*
X98529644Y-108732408D01*
X98407400Y-108610164D01*
X98407400Y-108275374D01*
X98447123Y-108249813D01*
X102052192Y-108249813D01*
X102121657Y-108491997D01*
X102645102Y-108678744D01*
X103200168Y-108650962D01*
X103583943Y-108491997D01*
X103653408Y-108249813D01*
X102852800Y-107449205D01*
X102052192Y-108249813D01*
X98447123Y-108249813D01*
X98499841Y-108215890D01*
X98644831Y-108003690D01*
X98695840Y-107751800D01*
X98695840Y-107254550D01*
X99171600Y-107254550D01*
X99171600Y-107595109D01*
X99268273Y-107828498D01*
X99446901Y-108007127D01*
X99680290Y-108103800D01*
X100145850Y-108103800D01*
X100304600Y-107945050D01*
X100304600Y-107095800D01*
X99330350Y-107095800D01*
X99171600Y-107254550D01*
X98695840Y-107254550D01*
X98695840Y-107101800D01*
X98669481Y-106961714D01*
X98683400Y-106928110D01*
X98683400Y-106762550D01*
X98524650Y-106603800D01*
X98444349Y-106603800D01*
X98300290Y-106505369D01*
X98163280Y-106477624D01*
X98283717Y-106454962D01*
X98344576Y-106415800D01*
X98740600Y-106415800D01*
X99080806Y-106348129D01*
X99203116Y-106266404D01*
X99171600Y-106342491D01*
X99171600Y-106683050D01*
X99330350Y-106841800D01*
X100304600Y-106841800D01*
X100304600Y-106821800D01*
X100558600Y-106821800D01*
X100558600Y-106841800D01*
X100578600Y-106841800D01*
X100578600Y-107095800D01*
X100558600Y-107095800D01*
X100558600Y-107945050D01*
X100717350Y-108103800D01*
X101182910Y-108103800D01*
X101416299Y-108007127D01*
X101569563Y-107853862D01*
X101630403Y-108000743D01*
X101872587Y-108070208D01*
X102673195Y-107269600D01*
X103032405Y-107269600D01*
X103833013Y-108070208D01*
X104075197Y-108000743D01*
X104261944Y-107477298D01*
X104234162Y-106922232D01*
X104075197Y-106538457D01*
X103833013Y-106468992D01*
X103032405Y-107269600D01*
X102673195Y-107269600D01*
X101872587Y-106468992D01*
X101691600Y-106520904D01*
X101691600Y-106342491D01*
X101594927Y-106109102D01*
X101453690Y-105967864D01*
X101508041Y-105932890D01*
X101653031Y-105720690D01*
X101665605Y-105658600D01*
X101766315Y-105658600D01*
X102060430Y-105953229D01*
X102204303Y-106012970D01*
X102121657Y-106047203D01*
X102052192Y-106289387D01*
X102852800Y-107089995D01*
X103653408Y-106289387D01*
X103583943Y-106047203D01*
X103495433Y-106015626D01*
X103643103Y-105954610D01*
X104036429Y-105561970D01*
X104249557Y-105048700D01*
X104250042Y-104492939D01*
X104037810Y-103979297D01*
X103645170Y-103585971D01*
X103131900Y-103372843D01*
X102576139Y-103372358D01*
X102062497Y-103584590D01*
X101765970Y-103880600D01*
X101320536Y-103880600D01*
X101308490Y-103872369D01*
X101056600Y-103821360D01*
X99806600Y-103821360D01*
X99571283Y-103865638D01*
X99355159Y-104004710D01*
X99303852Y-104079800D01*
X99298600Y-104079800D01*
X98958394Y-104147471D01*
X98669982Y-104340182D01*
X98372364Y-104637800D01*
X98347754Y-104637800D01*
X98300290Y-104605369D01*
X98048400Y-104554360D01*
X96988400Y-104554360D01*
X96753083Y-104598638D01*
X96536959Y-104737710D01*
X96417167Y-104913032D01*
X96312490Y-104750359D01*
X96100290Y-104605369D01*
X95848400Y-104554360D01*
X94788400Y-104554360D01*
X94553083Y-104598638D01*
X94492224Y-104637800D01*
X93740608Y-104637800D01*
X93586890Y-104532769D01*
X93581180Y-104531613D01*
X93531329Y-104280994D01*
X93338618Y-103992582D01*
X92685860Y-103339824D01*
X92967163Y-103340069D01*
X93326712Y-103191507D01*
X93602040Y-102916659D01*
X93751230Y-102557370D01*
X93751569Y-102168337D01*
X93635451Y-101887308D01*
X93667258Y-101887308D01*
X93667258Y-101728560D01*
X93826006Y-101887308D01*
X94016565Y-101887308D01*
X94249954Y-101790635D01*
X94428583Y-101612007D01*
X94484910Y-101476021D01*
X94487094Y-101487625D01*
X94626166Y-101703749D01*
X94838366Y-101848739D01*
X95090256Y-101899748D01*
X95790256Y-101899748D01*
X96025573Y-101855470D01*
X96241697Y-101716398D01*
X96386687Y-101504198D01*
X96437696Y-101252308D01*
X96437696Y-99952308D01*
X96393418Y-99716991D01*
X96329256Y-99617280D01*
X96329256Y-99073574D01*
X96376696Y-98839308D01*
X96376696Y-97539308D01*
X96332418Y-97303991D01*
X96268256Y-97204280D01*
X96268256Y-96485408D01*
X96378489Y-96324076D01*
X96483166Y-96486749D01*
X96588256Y-96558554D01*
X96588256Y-97584308D01*
X96655927Y-97924514D01*
X96804159Y-98146359D01*
X96848638Y-98212926D01*
X97326638Y-98690926D01*
X97615050Y-98883637D01*
X97857114Y-98931786D01*
X97860094Y-98947625D01*
X97999166Y-99163749D01*
X98211366Y-99308739D01*
X98463256Y-99359748D01*
X99163256Y-99359748D01*
X99398573Y-99315470D01*
X99614697Y-99176398D01*
X99759687Y-98964198D01*
X99762337Y-98951111D01*
X99899166Y-99163749D01*
X100111366Y-99308739D01*
X100363256Y-99359748D01*
X101063256Y-99359748D01*
X101298573Y-99315470D01*
X101514697Y-99176398D01*
X101659687Y-98964198D01*
X101662297Y-98951308D01*
X102378035Y-98951308D01*
X102547630Y-99021730D01*
X102936663Y-99022069D01*
X103296212Y-98873507D01*
X103297419Y-98872302D01*
X108945656Y-98872302D01*
X108973438Y-99427368D01*
X109132403Y-99811143D01*
X109374587Y-99880608D01*
X110175195Y-99080000D01*
X110534405Y-99080000D01*
X111335013Y-99880608D01*
X111577197Y-99811143D01*
X111763944Y-99287698D01*
X111738057Y-98770491D01*
X111973200Y-98770491D01*
X111973200Y-99111050D01*
X112131950Y-99269800D01*
X113106200Y-99269800D01*
X113106200Y-98420550D01*
X112947450Y-98261800D01*
X112481890Y-98261800D01*
X112248501Y-98358473D01*
X112069873Y-98537102D01*
X111973200Y-98770491D01*
X111738057Y-98770491D01*
X111736162Y-98732632D01*
X111577197Y-98348857D01*
X111335013Y-98279392D01*
X110534405Y-99080000D01*
X110175195Y-99080000D01*
X109374587Y-98279392D01*
X109132403Y-98348857D01*
X108945656Y-98872302D01*
X103297419Y-98872302D01*
X103571540Y-98598659D01*
X103720730Y-98239370D01*
X103721069Y-97850337D01*
X103572507Y-97490788D01*
X103297659Y-97215460D01*
X102938370Y-97066270D01*
X102549337Y-97065931D01*
X102289464Y-97173308D01*
X101664048Y-97173308D01*
X101527346Y-96960867D01*
X101315146Y-96815877D01*
X101063256Y-96764868D01*
X100363256Y-96764868D01*
X100127939Y-96809146D01*
X99911815Y-96948218D01*
X99766825Y-97160418D01*
X99764175Y-97173505D01*
X99627346Y-96960867D01*
X99415146Y-96815877D01*
X99163256Y-96764868D01*
X98463256Y-96764868D01*
X98366256Y-96783120D01*
X98366256Y-96571213D01*
X101942392Y-96571213D01*
X102011857Y-96813397D01*
X102535302Y-97000144D01*
X103090368Y-96972362D01*
X103474143Y-96813397D01*
X103543608Y-96571213D01*
X102743000Y-95770605D01*
X101942392Y-96571213D01*
X98366256Y-96571213D01*
X98366256Y-96558882D01*
X98458697Y-96499398D01*
X98603687Y-96287198D01*
X98654696Y-96035308D01*
X98654696Y-95646750D01*
X99070000Y-95646750D01*
X99070000Y-95987309D01*
X99166673Y-96220698D01*
X99345301Y-96399327D01*
X99578690Y-96496000D01*
X100044250Y-96496000D01*
X100203000Y-96337250D01*
X100203000Y-95488000D01*
X99228750Y-95488000D01*
X99070000Y-95646750D01*
X98654696Y-95646750D01*
X98654696Y-95385308D01*
X98628337Y-95245222D01*
X98642256Y-95211618D01*
X98642256Y-95046058D01*
X98483506Y-94887308D01*
X98403205Y-94887308D01*
X98259146Y-94788877D01*
X98122136Y-94761132D01*
X98242573Y-94738470D01*
X98405999Y-94633308D01*
X98483506Y-94633308D01*
X98642256Y-94474558D01*
X98642256Y-94308998D01*
X98626988Y-94272137D01*
X98631470Y-94250000D01*
X99200730Y-94250000D01*
X99240910Y-94312441D01*
X99309006Y-94358969D01*
X99166673Y-94501302D01*
X99070000Y-94734691D01*
X99070000Y-95075250D01*
X99228750Y-95234000D01*
X100203000Y-95234000D01*
X100203000Y-95214000D01*
X100457000Y-95214000D01*
X100457000Y-95234000D01*
X100477000Y-95234000D01*
X100477000Y-95488000D01*
X100457000Y-95488000D01*
X100457000Y-96337250D01*
X100615750Y-96496000D01*
X101081310Y-96496000D01*
X101314699Y-96399327D01*
X101482901Y-96231124D01*
X101520603Y-96322143D01*
X101762787Y-96391608D01*
X102563395Y-95591000D01*
X102922605Y-95591000D01*
X103723213Y-96391608D01*
X103965397Y-96322143D01*
X104152144Y-95798698D01*
X104124362Y-95243632D01*
X103965397Y-94859857D01*
X103723213Y-94790392D01*
X102922605Y-95591000D01*
X102563395Y-95591000D01*
X101762787Y-94790392D01*
X101590000Y-94839952D01*
X101590000Y-94734691D01*
X101493327Y-94501302D01*
X101352090Y-94360064D01*
X101406441Y-94325090D01*
X101551431Y-94112890D01*
X101578342Y-93980000D01*
X101656515Y-93980000D01*
X101950630Y-94274629D01*
X102094503Y-94334370D01*
X102011857Y-94368603D01*
X101942392Y-94610787D01*
X102743000Y-95411395D01*
X103543608Y-94610787D01*
X103474143Y-94368603D01*
X103385633Y-94337026D01*
X103533303Y-94276010D01*
X103926629Y-93883370D01*
X103974638Y-93767750D01*
X104695500Y-93767750D01*
X104695500Y-94408310D01*
X104792173Y-94641699D01*
X104970802Y-94820327D01*
X105204191Y-94917000D01*
X106094750Y-94917000D01*
X106253500Y-94758250D01*
X106253500Y-93609000D01*
X104854250Y-93609000D01*
X104695500Y-93767750D01*
X103974638Y-93767750D01*
X104139757Y-93370100D01*
X104140242Y-92814339D01*
X103928010Y-92300697D01*
X103535370Y-91907371D01*
X103022100Y-91694243D01*
X102466339Y-91693758D01*
X101952697Y-91905990D01*
X101656170Y-92202000D01*
X100600000Y-92202000D01*
X100541883Y-92213560D01*
X99705000Y-92213560D01*
X99469683Y-92257838D01*
X99253559Y-92396910D01*
X99202252Y-92472000D01*
X97926564Y-92472000D01*
X97586358Y-92539671D01*
X97297946Y-92732382D01*
X97192460Y-92837868D01*
X96947256Y-92837868D01*
X96711939Y-92882146D01*
X96495815Y-93021218D01*
X96376023Y-93196540D01*
X96352232Y-93159568D01*
X100611800Y-88900000D01*
X100660264Y-88900000D01*
X102269637Y-90509373D01*
X102269637Y-90509373D01*
G37*
X102269637Y-90509373D02*
X102357993Y-90723212D01*
X102632841Y-90998540D01*
X102992130Y-91147730D01*
X103381163Y-91148069D01*
X103740712Y-90999507D01*
X104016040Y-90724659D01*
X104018349Y-90719099D01*
X104104250Y-90805000D01*
X105353500Y-90805000D01*
X105353500Y-89505750D01*
X105607500Y-89505750D01*
X105607500Y-90805000D01*
X108153500Y-90805000D01*
X108153500Y-89505750D01*
X108407500Y-89505750D01*
X108407500Y-90805000D01*
X110553500Y-90805000D01*
X110553500Y-89505750D01*
X110807500Y-89505750D01*
X110807500Y-90805000D01*
X113353500Y-90805000D01*
X113353500Y-89505750D01*
X113607500Y-89505750D01*
X113607500Y-90805000D01*
X114856750Y-90805000D01*
X115015500Y-90646250D01*
X115015500Y-89855690D01*
X114918827Y-89622301D01*
X114740198Y-89443673D01*
X114506809Y-89347000D01*
X113766250Y-89347000D01*
X113607500Y-89505750D01*
X113353500Y-89505750D01*
X113194750Y-89347000D01*
X112454191Y-89347000D01*
X112220802Y-89443673D01*
X112105500Y-89558974D01*
X111990198Y-89443673D01*
X111756809Y-89347000D01*
X110966250Y-89347000D01*
X110807500Y-89505750D01*
X110553500Y-89505750D01*
X110394750Y-89347000D01*
X109604191Y-89347000D01*
X109480500Y-89398235D01*
X109356809Y-89347000D01*
X108566250Y-89347000D01*
X108407500Y-89505750D01*
X108153500Y-89505750D01*
X107994750Y-89347000D01*
X107204191Y-89347000D01*
X106970802Y-89443673D01*
X106855500Y-89558974D01*
X106740198Y-89443673D01*
X106506809Y-89347000D01*
X105766250Y-89347000D01*
X105607500Y-89505750D01*
X105353500Y-89505750D01*
X105194750Y-89347000D01*
X104454191Y-89347000D01*
X104220802Y-89443673D01*
X104042173Y-89622301D01*
X104030715Y-89649964D01*
X104017007Y-89616788D01*
X103742159Y-89341460D01*
X103526750Y-89252014D01*
X103174736Y-88900000D01*
X117741764Y-88900000D01*
X118535514Y-89693750D01*
X114265500Y-93963764D01*
X114265500Y-93767750D01*
X114106750Y-93609000D01*
X112707500Y-93609000D01*
X112707500Y-93629000D01*
X112453500Y-93629000D01*
X112453500Y-93609000D01*
X112433500Y-93609000D01*
X112433500Y-93355000D01*
X112453500Y-93355000D01*
X112453500Y-93335000D01*
X112707500Y-93335000D01*
X112707500Y-93355000D01*
X114106750Y-93355000D01*
X114265500Y-93196250D01*
X114265500Y-92555690D01*
X114249474Y-92517000D01*
X114506809Y-92517000D01*
X114740198Y-92420327D01*
X114918827Y-92241699D01*
X115015500Y-92008310D01*
X115015500Y-91217750D01*
X114856750Y-91059000D01*
X113607500Y-91059000D01*
X113607500Y-91079000D01*
X113353500Y-91079000D01*
X113353500Y-91059000D01*
X110807500Y-91059000D01*
X110807500Y-91079000D01*
X110553500Y-91079000D01*
X110553500Y-91059000D01*
X108407500Y-91059000D01*
X108407500Y-91079000D01*
X108153500Y-91079000D01*
X108153500Y-91059000D01*
X105607500Y-91059000D01*
X105607500Y-91079000D01*
X105353500Y-91079000D01*
X105353500Y-91059000D01*
X104104250Y-91059000D01*
X103945500Y-91217750D01*
X103945500Y-92008310D01*
X104042173Y-92241699D01*
X104220802Y-92420327D01*
X104454191Y-92517000D01*
X104711526Y-92517000D01*
X104695500Y-92555690D01*
X104695500Y-93196250D01*
X104854250Y-93355000D01*
X106253500Y-93355000D01*
X106253500Y-93335000D01*
X106507500Y-93335000D01*
X106507500Y-93355000D01*
X106527500Y-93355000D01*
X106527500Y-93609000D01*
X106507500Y-93609000D01*
X106507500Y-94758250D01*
X106666250Y-94917000D01*
X107556809Y-94917000D01*
X107705500Y-94855410D01*
X107854191Y-94917000D01*
X107921750Y-94917000D01*
X108080500Y-94758250D01*
X108080500Y-94599933D01*
X108166410Y-94733441D01*
X108378610Y-94878431D01*
X108406285Y-94884035D01*
X108439250Y-94917000D01*
X108506809Y-94917000D01*
X108527253Y-94908532D01*
X108630500Y-94929440D01*
X109030500Y-94929440D01*
X109160089Y-94905056D01*
X109280500Y-94929440D01*
X109680500Y-94929440D01*
X109810089Y-94905056D01*
X109930500Y-94929440D01*
X109955357Y-94929440D01*
X110017172Y-95240207D01*
X110175098Y-95476560D01*
X110209883Y-95528619D01*
X110559882Y-95878618D01*
X110797516Y-96037400D01*
X110746655Y-96037400D01*
X110532970Y-95948670D01*
X110143937Y-95948331D01*
X109784388Y-96096893D01*
X109509060Y-96371741D01*
X109359870Y-96731030D01*
X109359531Y-97120063D01*
X109508093Y-97479612D01*
X109782941Y-97754940D01*
X109827169Y-97773305D01*
X109623657Y-97857603D01*
X109554192Y-98099787D01*
X110354800Y-98900395D01*
X111155408Y-98099787D01*
X111085943Y-97857603D01*
X110967650Y-97815400D01*
X111789608Y-97815400D01*
X111926310Y-98027841D01*
X112138510Y-98172831D01*
X112390400Y-98223840D01*
X113090400Y-98223840D01*
X113325717Y-98179562D01*
X113541841Y-98040490D01*
X113686831Y-97828290D01*
X113689481Y-97815203D01*
X113826310Y-98027841D01*
X114038510Y-98172831D01*
X114290400Y-98223840D01*
X114595376Y-98223840D01*
X114511969Y-98345910D01*
X114460960Y-98597800D01*
X114460960Y-98692657D01*
X114396527Y-98537102D01*
X114217899Y-98358473D01*
X113984510Y-98261800D01*
X113518950Y-98261800D01*
X113360200Y-98420550D01*
X113360200Y-99269800D01*
X113380200Y-99269800D01*
X113380200Y-99523800D01*
X113360200Y-99523800D01*
X113360200Y-99543800D01*
X113106200Y-99543800D01*
X113106200Y-99523800D01*
X112131950Y-99523800D01*
X111973200Y-99682550D01*
X111973200Y-100023109D01*
X112069873Y-100256498D01*
X112211110Y-100397736D01*
X112156759Y-100432710D01*
X112105452Y-100507800D01*
X111258405Y-100507800D01*
X111147170Y-100396371D01*
X111003297Y-100336630D01*
X111085943Y-100302397D01*
X111155408Y-100060213D01*
X110354800Y-99259605D01*
X109554192Y-100060213D01*
X109623657Y-100302397D01*
X109712167Y-100333974D01*
X109564497Y-100394990D01*
X109171171Y-100787630D01*
X108958043Y-101300900D01*
X108957558Y-101856661D01*
X109169790Y-102370303D01*
X109562430Y-102763629D01*
X110075700Y-102976757D01*
X110631461Y-102977242D01*
X111145103Y-102765010D01*
X111538429Y-102372370D01*
X111574376Y-102285800D01*
X112103930Y-102285800D01*
X112144110Y-102348241D01*
X112356310Y-102493231D01*
X112608200Y-102544240D01*
X113858200Y-102544240D01*
X114093517Y-102499962D01*
X114309641Y-102360890D01*
X114360948Y-102285800D01*
X115064400Y-102285800D01*
X115404606Y-102218129D01*
X115693018Y-102025418D01*
X115923196Y-101795240D01*
X116168400Y-101795240D01*
X116403717Y-101750962D01*
X116619841Y-101611890D01*
X116739633Y-101436568D01*
X116844310Y-101599241D01*
X117056510Y-101744231D01*
X117308400Y-101795240D01*
X118368400Y-101795240D01*
X118603717Y-101750962D01*
X118665820Y-101711000D01*
X118695230Y-101711000D01*
X118735410Y-101773441D01*
X118947610Y-101918431D01*
X119199500Y-101969440D01*
X120396000Y-101969440D01*
X120396000Y-102298500D01*
X120360555Y-102298500D01*
X120146870Y-102209770D01*
X119757837Y-102209431D01*
X119398288Y-102357993D01*
X119122960Y-102632841D01*
X118973770Y-102992130D01*
X118973431Y-103381163D01*
X119121993Y-103740712D01*
X119396841Y-104016040D01*
X119756130Y-104165230D01*
X120145163Y-104165569D01*
X120360727Y-104076500D01*
X120396000Y-104076500D01*
X120396000Y-104852750D01*
X120266500Y-104982250D01*
X120266500Y-105981500D01*
X120286500Y-105981500D01*
X120286500Y-106235500D01*
X120266500Y-106235500D01*
X120266500Y-107234750D01*
X120283250Y-107251500D01*
X120266500Y-107268250D01*
X120266500Y-108267500D01*
X120286500Y-108267500D01*
X120286500Y-108521500D01*
X120266500Y-108521500D01*
X120266500Y-108541500D01*
X120012500Y-108541500D01*
X120012500Y-108521500D01*
X119992500Y-108521500D01*
X119992500Y-108267500D01*
X120012500Y-108267500D01*
X120012500Y-107268250D01*
X119995750Y-107251500D01*
X120012500Y-107234750D01*
X120012500Y-106235500D01*
X119992500Y-106235500D01*
X119992500Y-105981500D01*
X120012500Y-105981500D01*
X120012500Y-104982250D01*
X119853750Y-104823500D01*
X119663191Y-104823500D01*
X119429802Y-104920173D01*
X119251173Y-105098801D01*
X119194846Y-105234787D01*
X119192662Y-105223183D01*
X119053590Y-105007059D01*
X118841390Y-104862069D01*
X118589500Y-104811060D01*
X117889500Y-104811060D01*
X117654183Y-104855338D01*
X117438059Y-104994410D01*
X117293069Y-105206610D01*
X117242060Y-105458500D01*
X117242060Y-106758500D01*
X117286338Y-106993817D01*
X117350500Y-107093528D01*
X117350500Y-107408557D01*
X117293069Y-107492610D01*
X117242060Y-107744500D01*
X117242060Y-109044500D01*
X117286338Y-109279817D01*
X117350500Y-109379528D01*
X117350500Y-109635997D01*
X117123883Y-109678638D01*
X116907759Y-109817710D01*
X116787967Y-109993032D01*
X116683290Y-109830359D01*
X116471090Y-109685369D01*
X116219200Y-109634360D01*
X115973996Y-109634360D01*
X115631474Y-109291838D01*
X115637840Y-109260400D01*
X115637840Y-107960400D01*
X115593562Y-107725083D01*
X115454490Y-107508959D01*
X115242290Y-107363969D01*
X114990400Y-107312960D01*
X114290400Y-107312960D01*
X114055083Y-107357238D01*
X113838959Y-107496310D01*
X113693969Y-107708510D01*
X113691319Y-107721597D01*
X113554490Y-107508959D01*
X113342290Y-107363969D01*
X113090400Y-107312960D01*
X112390400Y-107312960D01*
X112155083Y-107357238D01*
X111938959Y-107496310D01*
X111793969Y-107708510D01*
X111791359Y-107721400D01*
X110797455Y-107721400D01*
X110583770Y-107632670D01*
X110194737Y-107632331D01*
X109835188Y-107780893D01*
X109559860Y-108055741D01*
X109410670Y-108415030D01*
X109410331Y-108804063D01*
X109558893Y-109163612D01*
X109808912Y-109414068D01*
X109623657Y-109490803D01*
X109554192Y-109732987D01*
X110354800Y-110533595D01*
X111155408Y-109732987D01*
X111088409Y-109499400D01*
X111789608Y-109499400D01*
X111926310Y-109711841D01*
X112138510Y-109856831D01*
X112322713Y-109894133D01*
X112248501Y-109924873D01*
X112069873Y-110103502D01*
X111973200Y-110336891D01*
X111973200Y-110677450D01*
X112131950Y-110836200D01*
X113106200Y-110836200D01*
X113106200Y-110816200D01*
X113360200Y-110816200D01*
X113360200Y-110836200D01*
X114334450Y-110836200D01*
X114493200Y-110677450D01*
X114493200Y-110668036D01*
X114511760Y-110686596D01*
X114511760Y-110931800D01*
X114538119Y-111071886D01*
X114524200Y-111105490D01*
X114524200Y-111271050D01*
X114682950Y-111429800D01*
X114763251Y-111429800D01*
X114907310Y-111528231D01*
X115044320Y-111555976D01*
X114923883Y-111578638D01*
X114760457Y-111683800D01*
X114682950Y-111683800D01*
X114524200Y-111842550D01*
X114524200Y-112008110D01*
X114539468Y-112044971D01*
X114533550Y-112074200D01*
X114362470Y-112074200D01*
X114322290Y-112011759D01*
X114254194Y-111965231D01*
X114396527Y-111822898D01*
X114493200Y-111589509D01*
X114493200Y-111248950D01*
X114334450Y-111090200D01*
X113360200Y-111090200D01*
X113360200Y-111110200D01*
X113106200Y-111110200D01*
X113106200Y-111090200D01*
X112131950Y-111090200D01*
X111973200Y-111248950D01*
X111973200Y-111589509D01*
X112069873Y-111822898D01*
X112211110Y-111964136D01*
X112156759Y-111999110D01*
X112011769Y-112211310D01*
X111988908Y-112324200D01*
X111441285Y-112324200D01*
X111147170Y-112029571D01*
X111003297Y-111969830D01*
X111085943Y-111935597D01*
X111155408Y-111693413D01*
X110354800Y-110892805D01*
X109554192Y-111693413D01*
X109623657Y-111935597D01*
X109712167Y-111967174D01*
X109564497Y-112028190D01*
X109171171Y-112420830D01*
X108958043Y-112934100D01*
X108957558Y-113489861D01*
X109169790Y-114003503D01*
X109562430Y-114396829D01*
X110075700Y-114609957D01*
X110631461Y-114610442D01*
X111145103Y-114398210D01*
X111441630Y-114102200D01*
X112566522Y-114102200D01*
X112608200Y-114110640D01*
X113858200Y-114110640D01*
X114093517Y-114066362D01*
X114309641Y-113927290D01*
X114360948Y-113852200D01*
X115232800Y-113852200D01*
X115573006Y-113784529D01*
X115861418Y-113591818D01*
X115973996Y-113479240D01*
X116219200Y-113479240D01*
X116454517Y-113434962D01*
X116670641Y-113295890D01*
X116790433Y-113120568D01*
X116895110Y-113283241D01*
X117107310Y-113428231D01*
X117359200Y-113479240D01*
X118419200Y-113479240D01*
X118654517Y-113434962D01*
X118678377Y-113419609D01*
X118735410Y-113508241D01*
X118947610Y-113653231D01*
X119199500Y-113704240D01*
X120449500Y-113704240D01*
X120684817Y-113659962D01*
X120900941Y-113520890D01*
X121045931Y-113308690D01*
X121096940Y-113056800D01*
X121096940Y-112666596D01*
X121185000Y-112578536D01*
X121185000Y-123063000D01*
X106897940Y-123063000D01*
X106897940Y-122520000D01*
X106853662Y-122284683D01*
X106714590Y-122068559D01*
X106502390Y-121923569D01*
X106469010Y-121916809D01*
X106610199Y-121858327D01*
X106788827Y-121679698D01*
X106885500Y-121446309D01*
X106885500Y-121255750D01*
X106726750Y-121097000D01*
X105727500Y-121097000D01*
X105727500Y-121117000D01*
X105473500Y-121117000D01*
X105473500Y-121097000D01*
X104474250Y-121097000D01*
X104315500Y-121255750D01*
X104315500Y-121446309D01*
X104412173Y-121679698D01*
X104590801Y-121858327D01*
X104726787Y-121914654D01*
X104715183Y-121916838D01*
X104615472Y-121981000D01*
X103797091Y-121981000D01*
X103797269Y-121777137D01*
X103648707Y-121417588D01*
X103373859Y-121142260D01*
X103014570Y-120993070D01*
X102625537Y-120992731D01*
X102409973Y-121081800D01*
X102078392Y-121081800D01*
X101941690Y-120869359D01*
X101729490Y-120724369D01*
X101477600Y-120673360D01*
X100777600Y-120673360D01*
X100542283Y-120717638D01*
X100326159Y-120856710D01*
X100181169Y-121068910D01*
X100178519Y-121081997D01*
X100041690Y-120869359D01*
X99829490Y-120724369D01*
X99577600Y-120673360D01*
X98877600Y-120673360D01*
X98642283Y-120717638D01*
X98478844Y-120822808D01*
X98407400Y-120751364D01*
X98407400Y-120493691D01*
X104315500Y-120493691D01*
X104315500Y-120684250D01*
X104474250Y-120843000D01*
X105473500Y-120843000D01*
X105473500Y-120143750D01*
X105727500Y-120143750D01*
X105727500Y-120843000D01*
X106726750Y-120843000D01*
X106885500Y-120684250D01*
X106885500Y-120493691D01*
X106788827Y-120260302D01*
X106610199Y-120081673D01*
X106376810Y-119985000D01*
X105886250Y-119985000D01*
X105727500Y-120143750D01*
X105473500Y-120143750D01*
X105314750Y-119985000D01*
X104824190Y-119985000D01*
X104590801Y-120081673D01*
X104412173Y-120260302D01*
X104315500Y-120493691D01*
X98407400Y-120493691D01*
X98407400Y-119984613D01*
X102052192Y-119984613D01*
X102121657Y-120226797D01*
X102645102Y-120413544D01*
X103200168Y-120385762D01*
X103583943Y-120226797D01*
X103653408Y-119984613D01*
X102852800Y-119184005D01*
X102052192Y-119984613D01*
X98407400Y-119984613D01*
X98407400Y-119959374D01*
X98499841Y-119899890D01*
X98644831Y-119687690D01*
X98668110Y-119572735D01*
X98837301Y-119741927D01*
X99070690Y-119838600D01*
X99536250Y-119838600D01*
X99695000Y-119679850D01*
X99695000Y-118830600D01*
X99949000Y-118830600D01*
X99949000Y-119679850D01*
X100107750Y-119838600D01*
X100573310Y-119838600D01*
X100806699Y-119741927D01*
X100985327Y-119563298D01*
X101082000Y-119329909D01*
X101082000Y-118989350D01*
X100923250Y-118830600D01*
X99949000Y-118830600D01*
X99695000Y-118830600D01*
X99675000Y-118830600D01*
X99675000Y-118796702D01*
X101443656Y-118796702D01*
X101471438Y-119351768D01*
X101630403Y-119735543D01*
X101872587Y-119805008D01*
X102673195Y-119004400D01*
X103032405Y-119004400D01*
X103833013Y-119805008D01*
X104075197Y-119735543D01*
X104261944Y-119212098D01*
X104234162Y-118657032D01*
X104075197Y-118273257D01*
X103833013Y-118203792D01*
X103032405Y-119004400D01*
X102673195Y-119004400D01*
X101872587Y-118203792D01*
X101630403Y-118273257D01*
X101443656Y-118796702D01*
X99675000Y-118796702D01*
X99675000Y-118576600D01*
X99695000Y-118576600D01*
X99695000Y-118556600D01*
X99949000Y-118556600D01*
X99949000Y-118576600D01*
X100923250Y-118576600D01*
X101082000Y-118417850D01*
X101082000Y-118077291D01*
X100985327Y-117843902D01*
X100844090Y-117702664D01*
X100898441Y-117667690D01*
X101043431Y-117455490D01*
X101051954Y-117413400D01*
X101786280Y-117413400D01*
X102060430Y-117688029D01*
X102204303Y-117747770D01*
X102121657Y-117782003D01*
X102052192Y-118024187D01*
X102852800Y-118824795D01*
X103653408Y-118024187D01*
X103583943Y-117782003D01*
X103495433Y-117750426D01*
X103643103Y-117689410D01*
X104036429Y-117296770D01*
X104249557Y-116783500D01*
X104250042Y-116227739D01*
X104037810Y-115714097D01*
X103645170Y-115320771D01*
X103131900Y-115107643D01*
X102576139Y-115107158D01*
X102062497Y-115319390D01*
X101745935Y-115635400D01*
X100740207Y-115635400D01*
X100698890Y-115607169D01*
X100447000Y-115556160D01*
X99197000Y-115556160D01*
X98961683Y-115600438D01*
X98745559Y-115739510D01*
X98694252Y-115814600D01*
X98025600Y-115814600D01*
X97685394Y-115882271D01*
X97396982Y-116074982D01*
X97233604Y-116238360D01*
X96988400Y-116238360D01*
X96753083Y-116282638D01*
X96536959Y-116421710D01*
X96417167Y-116597032D01*
X96312490Y-116434359D01*
X96100290Y-116289369D01*
X95848400Y-116238360D01*
X94788400Y-116238360D01*
X94610682Y-116271800D01*
X93890070Y-116271800D01*
X93849890Y-116209359D01*
X93637690Y-116064369D01*
X93385800Y-116013360D01*
X92329000Y-116013360D01*
X92329000Y-115570000D01*
X92681945Y-115570000D01*
X92895630Y-115658730D01*
X93284663Y-115659069D01*
X93644212Y-115510507D01*
X93919540Y-115235659D01*
X94068730Y-114876370D01*
X94069069Y-114487337D01*
X93920507Y-114127788D01*
X93715802Y-113922725D01*
X93715802Y-113800652D01*
X93874550Y-113959400D01*
X94065109Y-113959400D01*
X94298498Y-113862727D01*
X94477127Y-113684099D01*
X94533454Y-113548113D01*
X94535638Y-113559717D01*
X94674710Y-113775841D01*
X94886910Y-113920831D01*
X95138800Y-113971840D01*
X95838800Y-113971840D01*
X96074117Y-113927562D01*
X96290241Y-113788490D01*
X96435231Y-113576290D01*
X96486240Y-113324400D01*
X96486240Y-112024400D01*
X96441962Y-111789083D01*
X96428600Y-111768318D01*
X96428600Y-111221943D01*
X96486031Y-111137890D01*
X96537040Y-110886000D01*
X96537040Y-109586000D01*
X96492762Y-109350683D01*
X96428600Y-109250972D01*
X96428600Y-108686816D01*
X96443800Y-108610400D01*
X96376129Y-108270195D01*
X96320066Y-108186290D01*
X96419633Y-108040568D01*
X96524310Y-108203241D01*
X96629400Y-108275046D01*
X96629400Y-108978400D01*
X96697071Y-109318606D01*
X96845132Y-109540194D01*
X96889782Y-109607018D01*
X97791782Y-110509018D01*
X98080195Y-110701730D01*
X98322258Y-110749879D01*
X98325238Y-110765717D01*
X98464310Y-110981841D01*
X98676510Y-111126831D01*
X98928400Y-111177840D01*
X99628400Y-111177840D01*
X99863717Y-111133562D01*
X100079841Y-110994490D01*
X100224831Y-110782290D01*
X100227481Y-110769203D01*
X100364310Y-110981841D01*
X100576510Y-111126831D01*
X100828400Y-111177840D01*
X101528400Y-111177840D01*
X101763717Y-111133562D01*
X101979841Y-110994490D01*
X102124831Y-110782290D01*
X102127441Y-110769400D01*
X102359345Y-110769400D01*
X102573030Y-110858130D01*
X102962063Y-110858469D01*
X103321612Y-110709907D01*
X103526373Y-110505502D01*
X108945656Y-110505502D01*
X108973438Y-111060568D01*
X109132403Y-111444343D01*
X109374587Y-111513808D01*
X110175195Y-110713200D01*
X110534405Y-110713200D01*
X111335013Y-111513808D01*
X111577197Y-111444343D01*
X111763944Y-110920898D01*
X111736162Y-110365832D01*
X111577197Y-109982057D01*
X111335013Y-109912592D01*
X110534405Y-110713200D01*
X110175195Y-110713200D01*
X109374587Y-109912592D01*
X109132403Y-109982057D01*
X108945656Y-110505502D01*
X103526373Y-110505502D01*
X103596940Y-110435059D01*
X103746130Y-110075770D01*
X103746469Y-109686737D01*
X103597907Y-109327188D01*
X103323059Y-109051860D01*
X102963770Y-108902670D01*
X102574737Y-108902331D01*
X102359173Y-108991400D01*
X102129192Y-108991400D01*
X101992490Y-108778959D01*
X101780290Y-108633969D01*
X101528400Y-108582960D01*
X100828400Y-108582960D01*
X100593083Y-108627238D01*
X100376959Y-108766310D01*
X100231969Y-108978510D01*
X100229319Y-108991597D01*
X100092490Y-108778959D01*
X99880290Y-108633969D01*
X99628400Y-108582960D01*
X98928400Y-108582960D01*
X98693083Y-108627238D01*
X98529644Y-108732408D01*
X98407400Y-108610164D01*
X98407400Y-108275374D01*
X98447123Y-108249813D01*
X102052192Y-108249813D01*
X102121657Y-108491997D01*
X102645102Y-108678744D01*
X103200168Y-108650962D01*
X103583943Y-108491997D01*
X103653408Y-108249813D01*
X102852800Y-107449205D01*
X102052192Y-108249813D01*
X98447123Y-108249813D01*
X98499841Y-108215890D01*
X98644831Y-108003690D01*
X98695840Y-107751800D01*
X98695840Y-107254550D01*
X99171600Y-107254550D01*
X99171600Y-107595109D01*
X99268273Y-107828498D01*
X99446901Y-108007127D01*
X99680290Y-108103800D01*
X100145850Y-108103800D01*
X100304600Y-107945050D01*
X100304600Y-107095800D01*
X99330350Y-107095800D01*
X99171600Y-107254550D01*
X98695840Y-107254550D01*
X98695840Y-107101800D01*
X98669481Y-106961714D01*
X98683400Y-106928110D01*
X98683400Y-106762550D01*
X98524650Y-106603800D01*
X98444349Y-106603800D01*
X98300290Y-106505369D01*
X98163280Y-106477624D01*
X98283717Y-106454962D01*
X98344576Y-106415800D01*
X98740600Y-106415800D01*
X99080806Y-106348129D01*
X99203116Y-106266404D01*
X99171600Y-106342491D01*
X99171600Y-106683050D01*
X99330350Y-106841800D01*
X100304600Y-106841800D01*
X100304600Y-106821800D01*
X100558600Y-106821800D01*
X100558600Y-106841800D01*
X100578600Y-106841800D01*
X100578600Y-107095800D01*
X100558600Y-107095800D01*
X100558600Y-107945050D01*
X100717350Y-108103800D01*
X101182910Y-108103800D01*
X101416299Y-108007127D01*
X101569563Y-107853862D01*
X101630403Y-108000743D01*
X101872587Y-108070208D01*
X102673195Y-107269600D01*
X103032405Y-107269600D01*
X103833013Y-108070208D01*
X104075197Y-108000743D01*
X104261944Y-107477298D01*
X104234162Y-106922232D01*
X104075197Y-106538457D01*
X103833013Y-106468992D01*
X103032405Y-107269600D01*
X102673195Y-107269600D01*
X101872587Y-106468992D01*
X101691600Y-106520904D01*
X101691600Y-106342491D01*
X101594927Y-106109102D01*
X101453690Y-105967864D01*
X101508041Y-105932890D01*
X101653031Y-105720690D01*
X101665605Y-105658600D01*
X101766315Y-105658600D01*
X102060430Y-105953229D01*
X102204303Y-106012970D01*
X102121657Y-106047203D01*
X102052192Y-106289387D01*
X102852800Y-107089995D01*
X103653408Y-106289387D01*
X103583943Y-106047203D01*
X103495433Y-106015626D01*
X103643103Y-105954610D01*
X104036429Y-105561970D01*
X104249557Y-105048700D01*
X104250042Y-104492939D01*
X104037810Y-103979297D01*
X103645170Y-103585971D01*
X103131900Y-103372843D01*
X102576139Y-103372358D01*
X102062497Y-103584590D01*
X101765970Y-103880600D01*
X101320536Y-103880600D01*
X101308490Y-103872369D01*
X101056600Y-103821360D01*
X99806600Y-103821360D01*
X99571283Y-103865638D01*
X99355159Y-104004710D01*
X99303852Y-104079800D01*
X99298600Y-104079800D01*
X98958394Y-104147471D01*
X98669982Y-104340182D01*
X98372364Y-104637800D01*
X98347754Y-104637800D01*
X98300290Y-104605369D01*
X98048400Y-104554360D01*
X96988400Y-104554360D01*
X96753083Y-104598638D01*
X96536959Y-104737710D01*
X96417167Y-104913032D01*
X96312490Y-104750359D01*
X96100290Y-104605369D01*
X95848400Y-104554360D01*
X94788400Y-104554360D01*
X94553083Y-104598638D01*
X94492224Y-104637800D01*
X93740608Y-104637800D01*
X93586890Y-104532769D01*
X93581180Y-104531613D01*
X93531329Y-104280994D01*
X93338618Y-103992582D01*
X92685860Y-103339824D01*
X92967163Y-103340069D01*
X93326712Y-103191507D01*
X93602040Y-102916659D01*
X93751230Y-102557370D01*
X93751569Y-102168337D01*
X93635451Y-101887308D01*
X93667258Y-101887308D01*
X93667258Y-101728560D01*
X93826006Y-101887308D01*
X94016565Y-101887308D01*
X94249954Y-101790635D01*
X94428583Y-101612007D01*
X94484910Y-101476021D01*
X94487094Y-101487625D01*
X94626166Y-101703749D01*
X94838366Y-101848739D01*
X95090256Y-101899748D01*
X95790256Y-101899748D01*
X96025573Y-101855470D01*
X96241697Y-101716398D01*
X96386687Y-101504198D01*
X96437696Y-101252308D01*
X96437696Y-99952308D01*
X96393418Y-99716991D01*
X96329256Y-99617280D01*
X96329256Y-99073574D01*
X96376696Y-98839308D01*
X96376696Y-97539308D01*
X96332418Y-97303991D01*
X96268256Y-97204280D01*
X96268256Y-96485408D01*
X96378489Y-96324076D01*
X96483166Y-96486749D01*
X96588256Y-96558554D01*
X96588256Y-97584308D01*
X96655927Y-97924514D01*
X96804159Y-98146359D01*
X96848638Y-98212926D01*
X97326638Y-98690926D01*
X97615050Y-98883637D01*
X97857114Y-98931786D01*
X97860094Y-98947625D01*
X97999166Y-99163749D01*
X98211366Y-99308739D01*
X98463256Y-99359748D01*
X99163256Y-99359748D01*
X99398573Y-99315470D01*
X99614697Y-99176398D01*
X99759687Y-98964198D01*
X99762337Y-98951111D01*
X99899166Y-99163749D01*
X100111366Y-99308739D01*
X100363256Y-99359748D01*
X101063256Y-99359748D01*
X101298573Y-99315470D01*
X101514697Y-99176398D01*
X101659687Y-98964198D01*
X101662297Y-98951308D01*
X102378035Y-98951308D01*
X102547630Y-99021730D01*
X102936663Y-99022069D01*
X103296212Y-98873507D01*
X103297419Y-98872302D01*
X108945656Y-98872302D01*
X108973438Y-99427368D01*
X109132403Y-99811143D01*
X109374587Y-99880608D01*
X110175195Y-99080000D01*
X110534405Y-99080000D01*
X111335013Y-99880608D01*
X111577197Y-99811143D01*
X111763944Y-99287698D01*
X111738057Y-98770491D01*
X111973200Y-98770491D01*
X111973200Y-99111050D01*
X112131950Y-99269800D01*
X113106200Y-99269800D01*
X113106200Y-98420550D01*
X112947450Y-98261800D01*
X112481890Y-98261800D01*
X112248501Y-98358473D01*
X112069873Y-98537102D01*
X111973200Y-98770491D01*
X111738057Y-98770491D01*
X111736162Y-98732632D01*
X111577197Y-98348857D01*
X111335013Y-98279392D01*
X110534405Y-99080000D01*
X110175195Y-99080000D01*
X109374587Y-98279392D01*
X109132403Y-98348857D01*
X108945656Y-98872302D01*
X103297419Y-98872302D01*
X103571540Y-98598659D01*
X103720730Y-98239370D01*
X103721069Y-97850337D01*
X103572507Y-97490788D01*
X103297659Y-97215460D01*
X102938370Y-97066270D01*
X102549337Y-97065931D01*
X102289464Y-97173308D01*
X101664048Y-97173308D01*
X101527346Y-96960867D01*
X101315146Y-96815877D01*
X101063256Y-96764868D01*
X100363256Y-96764868D01*
X100127939Y-96809146D01*
X99911815Y-96948218D01*
X99766825Y-97160418D01*
X99764175Y-97173505D01*
X99627346Y-96960867D01*
X99415146Y-96815877D01*
X99163256Y-96764868D01*
X98463256Y-96764868D01*
X98366256Y-96783120D01*
X98366256Y-96571213D01*
X101942392Y-96571213D01*
X102011857Y-96813397D01*
X102535302Y-97000144D01*
X103090368Y-96972362D01*
X103474143Y-96813397D01*
X103543608Y-96571213D01*
X102743000Y-95770605D01*
X101942392Y-96571213D01*
X98366256Y-96571213D01*
X98366256Y-96558882D01*
X98458697Y-96499398D01*
X98603687Y-96287198D01*
X98654696Y-96035308D01*
X98654696Y-95646750D01*
X99070000Y-95646750D01*
X99070000Y-95987309D01*
X99166673Y-96220698D01*
X99345301Y-96399327D01*
X99578690Y-96496000D01*
X100044250Y-96496000D01*
X100203000Y-96337250D01*
X100203000Y-95488000D01*
X99228750Y-95488000D01*
X99070000Y-95646750D01*
X98654696Y-95646750D01*
X98654696Y-95385308D01*
X98628337Y-95245222D01*
X98642256Y-95211618D01*
X98642256Y-95046058D01*
X98483506Y-94887308D01*
X98403205Y-94887308D01*
X98259146Y-94788877D01*
X98122136Y-94761132D01*
X98242573Y-94738470D01*
X98405999Y-94633308D01*
X98483506Y-94633308D01*
X98642256Y-94474558D01*
X98642256Y-94308998D01*
X98626988Y-94272137D01*
X98631470Y-94250000D01*
X99200730Y-94250000D01*
X99240910Y-94312441D01*
X99309006Y-94358969D01*
X99166673Y-94501302D01*
X99070000Y-94734691D01*
X99070000Y-95075250D01*
X99228750Y-95234000D01*
X100203000Y-95234000D01*
X100203000Y-95214000D01*
X100457000Y-95214000D01*
X100457000Y-95234000D01*
X100477000Y-95234000D01*
X100477000Y-95488000D01*
X100457000Y-95488000D01*
X100457000Y-96337250D01*
X100615750Y-96496000D01*
X101081310Y-96496000D01*
X101314699Y-96399327D01*
X101482901Y-96231124D01*
X101520603Y-96322143D01*
X101762787Y-96391608D01*
X102563395Y-95591000D01*
X102922605Y-95591000D01*
X103723213Y-96391608D01*
X103965397Y-96322143D01*
X104152144Y-95798698D01*
X104124362Y-95243632D01*
X103965397Y-94859857D01*
X103723213Y-94790392D01*
X102922605Y-95591000D01*
X102563395Y-95591000D01*
X101762787Y-94790392D01*
X101590000Y-94839952D01*
X101590000Y-94734691D01*
X101493327Y-94501302D01*
X101352090Y-94360064D01*
X101406441Y-94325090D01*
X101551431Y-94112890D01*
X101578342Y-93980000D01*
X101656515Y-93980000D01*
X101950630Y-94274629D01*
X102094503Y-94334370D01*
X102011857Y-94368603D01*
X101942392Y-94610787D01*
X102743000Y-95411395D01*
X103543608Y-94610787D01*
X103474143Y-94368603D01*
X103385633Y-94337026D01*
X103533303Y-94276010D01*
X103926629Y-93883370D01*
X103974638Y-93767750D01*
X104695500Y-93767750D01*
X104695500Y-94408310D01*
X104792173Y-94641699D01*
X104970802Y-94820327D01*
X105204191Y-94917000D01*
X106094750Y-94917000D01*
X106253500Y-94758250D01*
X106253500Y-93609000D01*
X104854250Y-93609000D01*
X104695500Y-93767750D01*
X103974638Y-93767750D01*
X104139757Y-93370100D01*
X104140242Y-92814339D01*
X103928010Y-92300697D01*
X103535370Y-91907371D01*
X103022100Y-91694243D01*
X102466339Y-91693758D01*
X101952697Y-91905990D01*
X101656170Y-92202000D01*
X100600000Y-92202000D01*
X100541883Y-92213560D01*
X99705000Y-92213560D01*
X99469683Y-92257838D01*
X99253559Y-92396910D01*
X99202252Y-92472000D01*
X97926564Y-92472000D01*
X97586358Y-92539671D01*
X97297946Y-92732382D01*
X97192460Y-92837868D01*
X96947256Y-92837868D01*
X96711939Y-92882146D01*
X96495815Y-93021218D01*
X96376023Y-93196540D01*
X96352232Y-93159568D01*
X100611800Y-88900000D01*
X100660264Y-88900000D01*
X102269637Y-90509373D01*
G36*
X91627800Y-118049800D02*
X91631530Y-118049800D01*
X91671710Y-118112241D01*
X91739806Y-118158769D01*
X91597473Y-118301102D01*
X91500800Y-118534491D01*
X91500800Y-118875050D01*
X91659550Y-119033800D01*
X92633800Y-119033800D01*
X92633800Y-119013800D01*
X92887800Y-119013800D01*
X92887800Y-119033800D01*
X93862050Y-119033800D01*
X94020800Y-118875050D01*
X94020800Y-118534491D01*
X93924127Y-118301102D01*
X93782890Y-118159864D01*
X93837241Y-118124890D01*
X93888548Y-118049800D01*
X94415868Y-118049800D01*
X94536510Y-118132231D01*
X94673520Y-118159976D01*
X94553083Y-118182638D01*
X94336959Y-118321710D01*
X94191969Y-118533910D01*
X94140960Y-118785800D01*
X94140960Y-119435800D01*
X94185238Y-119671117D01*
X94324310Y-119887241D01*
X94536510Y-120032231D01*
X94701400Y-120065622D01*
X94701400Y-120984857D01*
X94643969Y-121068910D01*
X94637209Y-121102290D01*
X94578727Y-120961101D01*
X94400098Y-120782473D01*
X94166709Y-120685800D01*
X93976150Y-120685800D01*
X93817400Y-120844550D01*
X93817400Y-121843800D01*
X93837400Y-121843800D01*
X93837400Y-122097800D01*
X93817400Y-122097800D01*
X93817400Y-122117800D01*
X93563400Y-122117800D01*
X93563400Y-122097800D01*
X92864150Y-122097800D01*
X92705400Y-122256550D01*
X92705400Y-122747110D01*
X92802073Y-122980499D01*
X92884575Y-123063000D01*
X91476500Y-123063000D01*
X91476500Y-121194490D01*
X92705400Y-121194490D01*
X92705400Y-121685050D01*
X92864150Y-121843800D01*
X93563400Y-121843800D01*
X93563400Y-120844550D01*
X93404650Y-120685800D01*
X93214091Y-120685800D01*
X92980702Y-120782473D01*
X92802073Y-120961101D01*
X92705400Y-121194490D01*
X91476500Y-121194490D01*
X91476500Y-119446550D01*
X91500800Y-119446550D01*
X91500800Y-119787109D01*
X91597473Y-120020498D01*
X91776101Y-120199127D01*
X92009490Y-120295800D01*
X92475050Y-120295800D01*
X92633800Y-120137050D01*
X92633800Y-119287800D01*
X92887800Y-119287800D01*
X92887800Y-120137050D01*
X93046550Y-120295800D01*
X93512110Y-120295800D01*
X93745499Y-120199127D01*
X93924127Y-120020498D01*
X94020800Y-119787109D01*
X94020800Y-119446550D01*
X93862050Y-119287800D01*
X92887800Y-119287800D01*
X92633800Y-119287800D01*
X91659550Y-119287800D01*
X91500800Y-119446550D01*
X91476500Y-119446550D01*
X91476500Y-118019705D01*
X91627800Y-118049800D01*
X91627800Y-118049800D01*
G37*
X91627800Y-118049800D02*
X91631530Y-118049800D01*
X91671710Y-118112241D01*
X91739806Y-118158769D01*
X91597473Y-118301102D01*
X91500800Y-118534491D01*
X91500800Y-118875050D01*
X91659550Y-119033800D01*
X92633800Y-119033800D01*
X92633800Y-119013800D01*
X92887800Y-119013800D01*
X92887800Y-119033800D01*
X93862050Y-119033800D01*
X94020800Y-118875050D01*
X94020800Y-118534491D01*
X93924127Y-118301102D01*
X93782890Y-118159864D01*
X93837241Y-118124890D01*
X93888548Y-118049800D01*
X94415868Y-118049800D01*
X94536510Y-118132231D01*
X94673520Y-118159976D01*
X94553083Y-118182638D01*
X94336959Y-118321710D01*
X94191969Y-118533910D01*
X94140960Y-118785800D01*
X94140960Y-119435800D01*
X94185238Y-119671117D01*
X94324310Y-119887241D01*
X94536510Y-120032231D01*
X94701400Y-120065622D01*
X94701400Y-120984857D01*
X94643969Y-121068910D01*
X94637209Y-121102290D01*
X94578727Y-120961101D01*
X94400098Y-120782473D01*
X94166709Y-120685800D01*
X93976150Y-120685800D01*
X93817400Y-120844550D01*
X93817400Y-121843800D01*
X93837400Y-121843800D01*
X93837400Y-122097800D01*
X93817400Y-122097800D01*
X93817400Y-122117800D01*
X93563400Y-122117800D01*
X93563400Y-122097800D01*
X92864150Y-122097800D01*
X92705400Y-122256550D01*
X92705400Y-122747110D01*
X92802073Y-122980499D01*
X92884575Y-123063000D01*
X91476500Y-123063000D01*
X91476500Y-121194490D01*
X92705400Y-121194490D01*
X92705400Y-121685050D01*
X92864150Y-121843800D01*
X93563400Y-121843800D01*
X93563400Y-120844550D01*
X93404650Y-120685800D01*
X93214091Y-120685800D01*
X92980702Y-120782473D01*
X92802073Y-120961101D01*
X92705400Y-121194490D01*
X91476500Y-121194490D01*
X91476500Y-119446550D01*
X91500800Y-119446550D01*
X91500800Y-119787109D01*
X91597473Y-120020498D01*
X91776101Y-120199127D01*
X92009490Y-120295800D01*
X92475050Y-120295800D01*
X92633800Y-120137050D01*
X92633800Y-119287800D01*
X92887800Y-119287800D01*
X92887800Y-120137050D01*
X93046550Y-120295800D01*
X93512110Y-120295800D01*
X93745499Y-120199127D01*
X93924127Y-120020498D01*
X94020800Y-119787109D01*
X94020800Y-119446550D01*
X93862050Y-119287800D01*
X92887800Y-119287800D01*
X92633800Y-119287800D01*
X91659550Y-119287800D01*
X91500800Y-119446550D01*
X91476500Y-119446550D01*
X91476500Y-118019705D01*
X91627800Y-118049800D01*
G36*
X96512150Y-118033800D02*
X96592451Y-118033800D01*
X96736510Y-118132231D01*
X96873520Y-118159976D01*
X96753083Y-118182638D01*
X96589657Y-118287800D01*
X96512150Y-118287800D01*
X96372435Y-118427515D01*
X96312490Y-118334359D01*
X96100290Y-118189369D01*
X95963280Y-118161624D01*
X96083717Y-118138962D01*
X96299841Y-117999890D01*
X96372256Y-117893906D01*
X96512150Y-118033800D01*
X96512150Y-118033800D01*
G37*
X96512150Y-118033800D02*
X96592451Y-118033800D01*
X96736510Y-118132231D01*
X96873520Y-118159976D01*
X96753083Y-118182638D01*
X96589657Y-118287800D01*
X96512150Y-118287800D01*
X96372435Y-118427515D01*
X96312490Y-118334359D01*
X96100290Y-118189369D01*
X95963280Y-118161624D01*
X96083717Y-118138962D01*
X96299841Y-117999890D01*
X96372256Y-117893906D01*
X96512150Y-118033800D01*
G36*
X94536510Y-106448231D02*
X94673520Y-106475976D01*
X94553083Y-106498638D01*
X94336959Y-106637710D01*
X94191969Y-106849910D01*
X94140960Y-107101800D01*
X94140960Y-107751800D01*
X94185238Y-107987117D01*
X94324310Y-108203241D01*
X94429400Y-108275046D01*
X94429400Y-108374000D01*
X94497071Y-108714206D01*
X94622999Y-108902670D01*
X94650600Y-108943978D01*
X94650600Y-109250057D01*
X94593169Y-109334110D01*
X94586409Y-109367490D01*
X94527927Y-109226301D01*
X94349298Y-109047673D01*
X94115909Y-108951000D01*
X93925350Y-108951000D01*
X93766600Y-109109750D01*
X93766600Y-110109000D01*
X93786600Y-110109000D01*
X93786600Y-110363000D01*
X93766600Y-110363000D01*
X93766600Y-111362250D01*
X93834150Y-111429800D01*
X93715800Y-111548150D01*
X93715800Y-112547400D01*
X93735800Y-112547400D01*
X93735800Y-112801400D01*
X93715800Y-112801400D01*
X93715800Y-112821400D01*
X93461800Y-112821400D01*
X93461800Y-112801400D01*
X92762550Y-112801400D01*
X92603800Y-112960150D01*
X92603800Y-113450710D01*
X92700473Y-113684099D01*
X92771358Y-113754984D01*
X92681773Y-113792000D01*
X92329000Y-113792000D01*
X92329000Y-111898090D01*
X92603800Y-111898090D01*
X92603800Y-112388650D01*
X92762550Y-112547400D01*
X93461800Y-112547400D01*
X93461800Y-111548150D01*
X93394250Y-111480600D01*
X93512600Y-111362250D01*
X93512600Y-110363000D01*
X92813350Y-110363000D01*
X92654600Y-110521750D01*
X92654600Y-111012310D01*
X92751273Y-111245699D01*
X92929902Y-111424327D01*
X92979036Y-111444679D01*
X92879102Y-111486073D01*
X92700473Y-111664701D01*
X92603800Y-111898090D01*
X92329000Y-111898090D01*
X92329000Y-109459690D01*
X92654600Y-109459690D01*
X92654600Y-109950250D01*
X92813350Y-110109000D01*
X93512600Y-110109000D01*
X93512600Y-109109750D01*
X93353850Y-108951000D01*
X93163291Y-108951000D01*
X92929902Y-109047673D01*
X92751273Y-109226301D01*
X92654600Y-109459690D01*
X92329000Y-109459690D01*
X92329000Y-108764200D01*
X92424250Y-108764200D01*
X92583000Y-108605450D01*
X92583000Y-107756200D01*
X92837000Y-107756200D01*
X92837000Y-108605450D01*
X92995750Y-108764200D01*
X93461310Y-108764200D01*
X93694699Y-108667527D01*
X93873327Y-108488898D01*
X93970000Y-108255509D01*
X93970000Y-107914950D01*
X93811250Y-107756200D01*
X92837000Y-107756200D01*
X92583000Y-107756200D01*
X92563000Y-107756200D01*
X92563000Y-107502200D01*
X92583000Y-107502200D01*
X92583000Y-107482200D01*
X92837000Y-107482200D01*
X92837000Y-107502200D01*
X93811250Y-107502200D01*
X93970000Y-107343450D01*
X93970000Y-107002891D01*
X93873327Y-106769502D01*
X93732090Y-106628264D01*
X93786441Y-106593290D01*
X93907715Y-106415800D01*
X94489046Y-106415800D01*
X94536510Y-106448231D01*
X94536510Y-106448231D01*
G37*
X94536510Y-106448231D02*
X94673520Y-106475976D01*
X94553083Y-106498638D01*
X94336959Y-106637710D01*
X94191969Y-106849910D01*
X94140960Y-107101800D01*
X94140960Y-107751800D01*
X94185238Y-107987117D01*
X94324310Y-108203241D01*
X94429400Y-108275046D01*
X94429400Y-108374000D01*
X94497071Y-108714206D01*
X94622999Y-108902670D01*
X94650600Y-108943978D01*
X94650600Y-109250057D01*
X94593169Y-109334110D01*
X94586409Y-109367490D01*
X94527927Y-109226301D01*
X94349298Y-109047673D01*
X94115909Y-108951000D01*
X93925350Y-108951000D01*
X93766600Y-109109750D01*
X93766600Y-110109000D01*
X93786600Y-110109000D01*
X93786600Y-110363000D01*
X93766600Y-110363000D01*
X93766600Y-111362250D01*
X93834150Y-111429800D01*
X93715800Y-111548150D01*
X93715800Y-112547400D01*
X93735800Y-112547400D01*
X93735800Y-112801400D01*
X93715800Y-112801400D01*
X93715800Y-112821400D01*
X93461800Y-112821400D01*
X93461800Y-112801400D01*
X92762550Y-112801400D01*
X92603800Y-112960150D01*
X92603800Y-113450710D01*
X92700473Y-113684099D01*
X92771358Y-113754984D01*
X92681773Y-113792000D01*
X92329000Y-113792000D01*
X92329000Y-111898090D01*
X92603800Y-111898090D01*
X92603800Y-112388650D01*
X92762550Y-112547400D01*
X93461800Y-112547400D01*
X93461800Y-111548150D01*
X93394250Y-111480600D01*
X93512600Y-111362250D01*
X93512600Y-110363000D01*
X92813350Y-110363000D01*
X92654600Y-110521750D01*
X92654600Y-111012310D01*
X92751273Y-111245699D01*
X92929902Y-111424327D01*
X92979036Y-111444679D01*
X92879102Y-111486073D01*
X92700473Y-111664701D01*
X92603800Y-111898090D01*
X92329000Y-111898090D01*
X92329000Y-109459690D01*
X92654600Y-109459690D01*
X92654600Y-109950250D01*
X92813350Y-110109000D01*
X93512600Y-110109000D01*
X93512600Y-109109750D01*
X93353850Y-108951000D01*
X93163291Y-108951000D01*
X92929902Y-109047673D01*
X92751273Y-109226301D01*
X92654600Y-109459690D01*
X92329000Y-109459690D01*
X92329000Y-108764200D01*
X92424250Y-108764200D01*
X92583000Y-108605450D01*
X92583000Y-107756200D01*
X92837000Y-107756200D01*
X92837000Y-108605450D01*
X92995750Y-108764200D01*
X93461310Y-108764200D01*
X93694699Y-108667527D01*
X93873327Y-108488898D01*
X93970000Y-108255509D01*
X93970000Y-107914950D01*
X93811250Y-107756200D01*
X92837000Y-107756200D01*
X92583000Y-107756200D01*
X92563000Y-107756200D01*
X92563000Y-107502200D01*
X92583000Y-107502200D01*
X92583000Y-107482200D01*
X92837000Y-107482200D01*
X92837000Y-107502200D01*
X93811250Y-107502200D01*
X93970000Y-107343450D01*
X93970000Y-107002891D01*
X93873327Y-106769502D01*
X93732090Y-106628264D01*
X93786441Y-106593290D01*
X93907715Y-106415800D01*
X94489046Y-106415800D01*
X94536510Y-106448231D01*
G36*
X119951500Y-110429800D02*
X119971500Y-110429800D01*
X119971500Y-110683800D01*
X119951500Y-110683800D01*
X119951500Y-110703800D01*
X119697500Y-110703800D01*
X119697500Y-110683800D01*
X119677500Y-110683800D01*
X119677500Y-110429800D01*
X119697500Y-110429800D01*
X119697500Y-110409800D01*
X119951500Y-110409800D01*
X119951500Y-110429800D01*
X119951500Y-110429800D01*
G37*
X119951500Y-110429800D02*
X119971500Y-110429800D01*
X119971500Y-110683800D01*
X119951500Y-110683800D01*
X119951500Y-110703800D01*
X119697500Y-110703800D01*
X119697500Y-110683800D01*
X119677500Y-110683800D01*
X119677500Y-110429800D01*
X119697500Y-110429800D01*
X119697500Y-110409800D01*
X119951500Y-110409800D01*
X119951500Y-110429800D01*
G36*
X94495366Y-94731739D02*
X94632376Y-94759484D01*
X94511939Y-94782146D01*
X94295815Y-94921218D01*
X94150825Y-95133418D01*
X94099816Y-95385308D01*
X94099816Y-96035308D01*
X94144094Y-96270625D01*
X94283166Y-96486749D01*
X94490256Y-96628247D01*
X94490256Y-97203365D01*
X94432825Y-97287418D01*
X94426065Y-97320798D01*
X94367583Y-97179609D01*
X94188954Y-97000981D01*
X93955565Y-96904308D01*
X93765006Y-96904308D01*
X93606256Y-97063058D01*
X93606256Y-98062308D01*
X93626256Y-98062308D01*
X93626256Y-98316308D01*
X93606256Y-98316308D01*
X93606256Y-99315558D01*
X93717006Y-99426308D01*
X93667256Y-99476058D01*
X93667256Y-100475308D01*
X93687256Y-100475308D01*
X93687256Y-100729308D01*
X93667256Y-100729308D01*
X93667256Y-100749308D01*
X93413256Y-100749308D01*
X93413256Y-100729308D01*
X92714006Y-100729308D01*
X92555256Y-100888058D01*
X92555256Y-101378618D01*
X92560727Y-101391827D01*
X92364273Y-101473000D01*
X92329000Y-101473000D01*
X92329000Y-98475058D01*
X92494256Y-98475058D01*
X92494256Y-98965618D01*
X92590929Y-99199007D01*
X92769558Y-99377635D01*
X92843931Y-99408442D01*
X92830558Y-99413981D01*
X92651929Y-99592609D01*
X92555256Y-99825998D01*
X92555256Y-100316558D01*
X92714006Y-100475308D01*
X93413256Y-100475308D01*
X93413256Y-99476058D01*
X93302506Y-99365308D01*
X93352256Y-99315558D01*
X93352256Y-98316308D01*
X92653006Y-98316308D01*
X92494256Y-98475058D01*
X92329000Y-98475058D01*
X92329000Y-97412998D01*
X92494256Y-97412998D01*
X92494256Y-97903558D01*
X92653006Y-98062308D01*
X93352256Y-98062308D01*
X93352256Y-97063058D01*
X93193506Y-96904308D01*
X93002947Y-96904308D01*
X92769558Y-97000981D01*
X92590929Y-97179609D01*
X92494256Y-97412998D01*
X92329000Y-97412998D01*
X92329000Y-96895308D01*
X92365506Y-96895308D01*
X92524256Y-96736558D01*
X92524256Y-95887308D01*
X92778256Y-95887308D01*
X92778256Y-96736558D01*
X92937006Y-96895308D01*
X93402566Y-96895308D01*
X93635955Y-96798635D01*
X93814583Y-96620006D01*
X93911256Y-96386617D01*
X93911256Y-96046058D01*
X93752506Y-95887308D01*
X92778256Y-95887308D01*
X92524256Y-95887308D01*
X92504256Y-95887308D01*
X92504256Y-95633308D01*
X92524256Y-95633308D01*
X92524256Y-95613308D01*
X92778256Y-95613308D01*
X92778256Y-95633308D01*
X93752506Y-95633308D01*
X93911256Y-95474558D01*
X93911256Y-95133999D01*
X93814583Y-94900610D01*
X93673346Y-94759372D01*
X93727697Y-94724398D01*
X93744840Y-94699308D01*
X94447902Y-94699308D01*
X94495366Y-94731739D01*
X94495366Y-94731739D01*
G37*
X94495366Y-94731739D02*
X94632376Y-94759484D01*
X94511939Y-94782146D01*
X94295815Y-94921218D01*
X94150825Y-95133418D01*
X94099816Y-95385308D01*
X94099816Y-96035308D01*
X94144094Y-96270625D01*
X94283166Y-96486749D01*
X94490256Y-96628247D01*
X94490256Y-97203365D01*
X94432825Y-97287418D01*
X94426065Y-97320798D01*
X94367583Y-97179609D01*
X94188954Y-97000981D01*
X93955565Y-96904308D01*
X93765006Y-96904308D01*
X93606256Y-97063058D01*
X93606256Y-98062308D01*
X93626256Y-98062308D01*
X93626256Y-98316308D01*
X93606256Y-98316308D01*
X93606256Y-99315558D01*
X93717006Y-99426308D01*
X93667256Y-99476058D01*
X93667256Y-100475308D01*
X93687256Y-100475308D01*
X93687256Y-100729308D01*
X93667256Y-100729308D01*
X93667256Y-100749308D01*
X93413256Y-100749308D01*
X93413256Y-100729308D01*
X92714006Y-100729308D01*
X92555256Y-100888058D01*
X92555256Y-101378618D01*
X92560727Y-101391827D01*
X92364273Y-101473000D01*
X92329000Y-101473000D01*
X92329000Y-98475058D01*
X92494256Y-98475058D01*
X92494256Y-98965618D01*
X92590929Y-99199007D01*
X92769558Y-99377635D01*
X92843931Y-99408442D01*
X92830558Y-99413981D01*
X92651929Y-99592609D01*
X92555256Y-99825998D01*
X92555256Y-100316558D01*
X92714006Y-100475308D01*
X93413256Y-100475308D01*
X93413256Y-99476058D01*
X93302506Y-99365308D01*
X93352256Y-99315558D01*
X93352256Y-98316308D01*
X92653006Y-98316308D01*
X92494256Y-98475058D01*
X92329000Y-98475058D01*
X92329000Y-97412998D01*
X92494256Y-97412998D01*
X92494256Y-97903558D01*
X92653006Y-98062308D01*
X93352256Y-98062308D01*
X93352256Y-97063058D01*
X93193506Y-96904308D01*
X93002947Y-96904308D01*
X92769558Y-97000981D01*
X92590929Y-97179609D01*
X92494256Y-97412998D01*
X92329000Y-97412998D01*
X92329000Y-96895308D01*
X92365506Y-96895308D01*
X92524256Y-96736558D01*
X92524256Y-95887308D01*
X92778256Y-95887308D01*
X92778256Y-96736558D01*
X92937006Y-96895308D01*
X93402566Y-96895308D01*
X93635955Y-96798635D01*
X93814583Y-96620006D01*
X93911256Y-96386617D01*
X93911256Y-96046058D01*
X93752506Y-95887308D01*
X92778256Y-95887308D01*
X92524256Y-95887308D01*
X92504256Y-95887308D01*
X92504256Y-95633308D01*
X92524256Y-95633308D01*
X92524256Y-95613308D01*
X92778256Y-95613308D01*
X92778256Y-95633308D01*
X93752506Y-95633308D01*
X93911256Y-95474558D01*
X93911256Y-95133999D01*
X93814583Y-94900610D01*
X93673346Y-94759372D01*
X93727697Y-94724398D01*
X93744840Y-94699308D01*
X94447902Y-94699308D01*
X94495366Y-94731739D01*
G36*
X119951500Y-98695000D02*
X119971500Y-98695000D01*
X119971500Y-98949000D01*
X119951500Y-98949000D01*
X119951500Y-98969000D01*
X119697500Y-98969000D01*
X119697500Y-98949000D01*
X119677500Y-98949000D01*
X119677500Y-98695000D01*
X119697500Y-98695000D01*
X119697500Y-98675000D01*
X119951500Y-98675000D01*
X119951500Y-98695000D01*
X119951500Y-98695000D01*
G37*
X119951500Y-98695000D02*
X119971500Y-98695000D01*
X119971500Y-98949000D01*
X119951500Y-98949000D01*
X119951500Y-98969000D01*
X119697500Y-98969000D01*
X119697500Y-98949000D01*
X119677500Y-98949000D01*
X119677500Y-98695000D01*
X119697500Y-98695000D01*
X119697500Y-98675000D01*
X119951500Y-98675000D01*
X119951500Y-98695000D01*
G36*
X120396000Y-91554236D02*
X120396000Y-93295750D01*
X120266500Y-93425250D01*
X120266500Y-94424500D01*
X120286500Y-94424500D01*
X120286500Y-94678500D01*
X120266500Y-94678500D01*
X120266500Y-96647000D01*
X120286500Y-96647000D01*
X120286500Y-96901000D01*
X120266500Y-96901000D01*
X120266500Y-96921000D01*
X120012500Y-96921000D01*
X120012500Y-96901000D01*
X119992500Y-96901000D01*
X119992500Y-96647000D01*
X120012500Y-96647000D01*
X120012500Y-94678500D01*
X119992500Y-94678500D01*
X119992500Y-94424500D01*
X120012500Y-94424500D01*
X120012500Y-93425250D01*
X119853750Y-93266500D01*
X119663191Y-93266500D01*
X119429802Y-93363173D01*
X119251173Y-93541801D01*
X119194846Y-93677787D01*
X119192662Y-93666183D01*
X119053590Y-93450059D01*
X118841390Y-93305069D01*
X118589500Y-93254060D01*
X117889500Y-93254060D01*
X117654183Y-93298338D01*
X117438059Y-93437410D01*
X117293069Y-93649610D01*
X117242060Y-93901500D01*
X117242060Y-95201500D01*
X117286338Y-95436817D01*
X117350500Y-95536528D01*
X117350500Y-95788057D01*
X117293069Y-95872110D01*
X117242060Y-96124000D01*
X117242060Y-96514204D01*
X117209782Y-96546482D01*
X117017071Y-96834894D01*
X116949400Y-97175100D01*
X116949400Y-98074226D01*
X116856959Y-98133710D01*
X116737167Y-98309032D01*
X116632490Y-98146359D01*
X116527400Y-98074554D01*
X116527400Y-97924400D01*
X116459729Y-97584194D01*
X116267018Y-97295782D01*
X115637840Y-96666604D01*
X115637840Y-96276400D01*
X115593562Y-96041083D01*
X115454490Y-95824959D01*
X115242290Y-95679969D01*
X115093831Y-95649905D01*
X119792750Y-90950986D01*
X120396000Y-91554236D01*
X120396000Y-91554236D01*
G37*
X120396000Y-91554236D02*
X120396000Y-93295750D01*
X120266500Y-93425250D01*
X120266500Y-94424500D01*
X120286500Y-94424500D01*
X120286500Y-94678500D01*
X120266500Y-94678500D01*
X120266500Y-96647000D01*
X120286500Y-96647000D01*
X120286500Y-96901000D01*
X120266500Y-96901000D01*
X120266500Y-96921000D01*
X120012500Y-96921000D01*
X120012500Y-96901000D01*
X119992500Y-96901000D01*
X119992500Y-96647000D01*
X120012500Y-96647000D01*
X120012500Y-94678500D01*
X119992500Y-94678500D01*
X119992500Y-94424500D01*
X120012500Y-94424500D01*
X120012500Y-93425250D01*
X119853750Y-93266500D01*
X119663191Y-93266500D01*
X119429802Y-93363173D01*
X119251173Y-93541801D01*
X119194846Y-93677787D01*
X119192662Y-93666183D01*
X119053590Y-93450059D01*
X118841390Y-93305069D01*
X118589500Y-93254060D01*
X117889500Y-93254060D01*
X117654183Y-93298338D01*
X117438059Y-93437410D01*
X117293069Y-93649610D01*
X117242060Y-93901500D01*
X117242060Y-95201500D01*
X117286338Y-95436817D01*
X117350500Y-95536528D01*
X117350500Y-95788057D01*
X117293069Y-95872110D01*
X117242060Y-96124000D01*
X117242060Y-96514204D01*
X117209782Y-96546482D01*
X117017071Y-96834894D01*
X116949400Y-97175100D01*
X116949400Y-98074226D01*
X116856959Y-98133710D01*
X116737167Y-98309032D01*
X116632490Y-98146359D01*
X116527400Y-98074554D01*
X116527400Y-97924400D01*
X116459729Y-97584194D01*
X116267018Y-97295782D01*
X115637840Y-96666604D01*
X115637840Y-96276400D01*
X115593562Y-96041083D01*
X115454490Y-95824959D01*
X115242290Y-95679969D01*
X115093831Y-95649905D01*
X119792750Y-90950986D01*
X120396000Y-91554236D01*
M02*
