G04 #@! TF.FileFunction,Legend,Bot*
%FSLAX46Y46*%
G04 Gerber Fmt 4.6, Leading zero omitted, Abs format (unit mm)*
G04 Created by KiCad (PCBNEW 4.0.1-stable) date 3/12/2016 12:27:59 PM*
%MOMM*%
G01*
G04 APERTURE LIST*
%ADD10C,0.100000*%
%ADD11C,0.150000*%
G04 APERTURE END LIST*
D10*
D11*
X105803000Y-96062600D02*
X105803000Y-93362600D01*
X107303000Y-96062600D02*
X107303000Y-93362600D01*
X106403000Y-94562600D02*
X106653000Y-94562600D01*
X106653000Y-94562600D02*
X106503000Y-94712600D01*
X106903000Y-94812600D02*
X106203000Y-94812600D01*
X106553000Y-94462600D02*
X106553000Y-94112600D01*
X106553000Y-94812600D02*
X106903000Y-94462600D01*
X106903000Y-94462600D02*
X106203000Y-94462600D01*
X106203000Y-94462600D02*
X106553000Y-94812600D01*
X105853800Y-107467200D02*
X105853800Y-104767200D01*
X107353800Y-107467200D02*
X107353800Y-104767200D01*
X106453800Y-105967200D02*
X106703800Y-105967200D01*
X106703800Y-105967200D02*
X106553800Y-106117200D01*
X106953800Y-106217200D02*
X106253800Y-106217200D01*
X106603800Y-105867200D02*
X106603800Y-105517200D01*
X106603800Y-106217200D02*
X106953800Y-105867200D01*
X106953800Y-105867200D02*
X106253800Y-105867200D01*
X106253800Y-105867200D02*
X106603800Y-106217200D01*
X105879200Y-119557600D02*
X105879200Y-116857600D01*
X107379200Y-119557600D02*
X107379200Y-116857600D01*
X106479200Y-118057600D02*
X106729200Y-118057600D01*
X106729200Y-118057600D02*
X106579200Y-118207600D01*
X106979200Y-118307600D02*
X106279200Y-118307600D01*
X106629200Y-117957600D02*
X106629200Y-117607600D01*
X106629200Y-118307600D02*
X106979200Y-117957600D01*
X106979200Y-117957600D02*
X106279200Y-117957600D01*
X106279200Y-117957600D02*
X106629200Y-118307600D01*
X107277600Y-98526800D02*
X107277600Y-101226800D01*
X105777600Y-98526800D02*
X105777600Y-101226800D01*
X106677600Y-100026800D02*
X106427600Y-100026800D01*
X106427600Y-100026800D02*
X106577600Y-99876800D01*
X106177600Y-99776800D02*
X106877600Y-99776800D01*
X106527600Y-100126800D02*
X106527600Y-100476800D01*
X106527600Y-99776800D02*
X106177600Y-100126800D01*
X106177600Y-100126800D02*
X106877600Y-100126800D01*
X106877600Y-100126800D02*
X106527600Y-99776800D01*
X107379200Y-110261600D02*
X107379200Y-112961600D01*
X105879200Y-110261600D02*
X105879200Y-112961600D01*
X106779200Y-111761600D02*
X106529200Y-111761600D01*
X106529200Y-111761600D02*
X106679200Y-111611600D01*
X106279200Y-111511600D02*
X106979200Y-111511600D01*
X106629200Y-111861600D02*
X106629200Y-112211600D01*
X106629200Y-111511600D02*
X106279200Y-111861600D01*
X106279200Y-111861600D02*
X106979200Y-111861600D01*
X106979200Y-111861600D02*
X106629200Y-111511600D01*
X96493000Y-98341000D02*
X91493000Y-98341000D01*
X96493000Y-96341000D02*
X96493000Y-98341000D01*
X101493000Y-96341000D02*
X96493000Y-96341000D01*
X101493000Y-92341000D02*
X101493000Y-96341000D01*
X96493000Y-92341000D02*
X101493000Y-92341000D01*
X96493000Y-91841000D02*
X96493000Y-92341000D01*
X96493000Y-90341000D02*
X96493000Y-91841000D01*
X91493000Y-90341000D02*
X96493000Y-90341000D01*
X96602800Y-110019600D02*
X91602800Y-110019600D01*
X96602800Y-108019600D02*
X96602800Y-110019600D01*
X101602800Y-108019600D02*
X96602800Y-108019600D01*
X101602800Y-104019600D02*
X101602800Y-108019600D01*
X96602800Y-104019600D02*
X101602800Y-104019600D01*
X96602800Y-103519600D02*
X96602800Y-104019600D01*
X96602800Y-102019600D02*
X96602800Y-103519600D01*
X91602800Y-102019600D02*
X96602800Y-102019600D01*
X96602800Y-121754400D02*
X91602800Y-121754400D01*
X96602800Y-119754400D02*
X96602800Y-121754400D01*
X101602800Y-119754400D02*
X96602800Y-119754400D01*
X101602800Y-115754400D02*
X101602800Y-119754400D01*
X96602800Y-115754400D02*
X101602800Y-115754400D01*
X96602800Y-115254400D02*
X96602800Y-115754400D01*
X96602800Y-113754400D02*
X96602800Y-115254400D01*
X91602800Y-113754400D02*
X96602800Y-113754400D01*
X116604800Y-96330000D02*
X121604800Y-96330000D01*
X116604800Y-98330000D02*
X116604800Y-96330000D01*
X111604800Y-98330000D02*
X116604800Y-98330000D01*
X111604800Y-102330000D02*
X111604800Y-98330000D01*
X116604800Y-102330000D02*
X111604800Y-102330000D01*
X116604800Y-102830000D02*
X116604800Y-102330000D01*
X116604800Y-104330000D02*
X116604800Y-102830000D01*
X121604800Y-104330000D02*
X116604800Y-104330000D01*
X116604800Y-107963200D02*
X121604800Y-107963200D01*
X116604800Y-109963200D02*
X116604800Y-107963200D01*
X111604800Y-109963200D02*
X116604800Y-109963200D01*
X111604800Y-113963200D02*
X111604800Y-109963200D01*
X116604800Y-113963200D02*
X111604800Y-113963200D01*
X116604800Y-114463200D02*
X116604800Y-113963200D01*
X116604800Y-115963200D02*
X116604800Y-114463200D01*
X121604800Y-115963200D02*
X116604800Y-115963200D01*
X108755381Y-93724505D02*
X107755381Y-93724505D01*
X107755381Y-93962600D01*
X107803000Y-94105458D01*
X107898238Y-94200696D01*
X107993476Y-94248315D01*
X108183952Y-94295934D01*
X108326810Y-94295934D01*
X108517286Y-94248315D01*
X108612524Y-94200696D01*
X108707762Y-94105458D01*
X108755381Y-93962600D01*
X108755381Y-93724505D01*
X108755381Y-95248315D02*
X108755381Y-94676886D01*
X108755381Y-94962600D02*
X107755381Y-94962600D01*
X107898238Y-94867362D01*
X107993476Y-94772124D01*
X108041095Y-94676886D01*
X108806181Y-105129105D02*
X107806181Y-105129105D01*
X107806181Y-105367200D01*
X107853800Y-105510058D01*
X107949038Y-105605296D01*
X108044276Y-105652915D01*
X108234752Y-105700534D01*
X108377610Y-105700534D01*
X108568086Y-105652915D01*
X108663324Y-105605296D01*
X108758562Y-105510058D01*
X108806181Y-105367200D01*
X108806181Y-105129105D01*
X107901419Y-106081486D02*
X107853800Y-106129105D01*
X107806181Y-106224343D01*
X107806181Y-106462439D01*
X107853800Y-106557677D01*
X107901419Y-106605296D01*
X107996657Y-106652915D01*
X108091895Y-106652915D01*
X108234752Y-106605296D01*
X108806181Y-106033867D01*
X108806181Y-106652915D01*
X108831581Y-117219505D02*
X107831581Y-117219505D01*
X107831581Y-117457600D01*
X107879200Y-117600458D01*
X107974438Y-117695696D01*
X108069676Y-117743315D01*
X108260152Y-117790934D01*
X108403010Y-117790934D01*
X108593486Y-117743315D01*
X108688724Y-117695696D01*
X108783962Y-117600458D01*
X108831581Y-117457600D01*
X108831581Y-117219505D01*
X107831581Y-118124267D02*
X107831581Y-118743315D01*
X108212533Y-118409981D01*
X108212533Y-118552839D01*
X108260152Y-118648077D01*
X108307771Y-118695696D01*
X108403010Y-118743315D01*
X108641105Y-118743315D01*
X108736343Y-118695696D01*
X108783962Y-118648077D01*
X108831581Y-118552839D01*
X108831581Y-118267124D01*
X108783962Y-118171886D01*
X108736343Y-118124267D01*
X105229981Y-99388705D02*
X104229981Y-99388705D01*
X104229981Y-99626800D01*
X104277600Y-99769658D01*
X104372838Y-99864896D01*
X104468076Y-99912515D01*
X104658552Y-99960134D01*
X104801410Y-99960134D01*
X104991886Y-99912515D01*
X105087124Y-99864896D01*
X105182362Y-99769658D01*
X105229981Y-99626800D01*
X105229981Y-99388705D01*
X104563314Y-100817277D02*
X105229981Y-100817277D01*
X104182362Y-100579181D02*
X104896648Y-100341086D01*
X104896648Y-100960134D01*
X105331581Y-111123505D02*
X104331581Y-111123505D01*
X104331581Y-111361600D01*
X104379200Y-111504458D01*
X104474438Y-111599696D01*
X104569676Y-111647315D01*
X104760152Y-111694934D01*
X104903010Y-111694934D01*
X105093486Y-111647315D01*
X105188724Y-111599696D01*
X105283962Y-111504458D01*
X105331581Y-111361600D01*
X105331581Y-111123505D01*
X104331581Y-112599696D02*
X104331581Y-112123505D01*
X104807771Y-112075886D01*
X104760152Y-112123505D01*
X104712533Y-112218743D01*
X104712533Y-112456839D01*
X104760152Y-112552077D01*
X104807771Y-112599696D01*
X104903010Y-112647315D01*
X105141105Y-112647315D01*
X105236343Y-112599696D01*
X105283962Y-112552077D01*
X105331581Y-112456839D01*
X105331581Y-112218743D01*
X105283962Y-112123505D01*
X105236343Y-112075886D01*
X94445381Y-93602905D02*
X93445381Y-93602905D01*
X93445381Y-93983858D01*
X93493000Y-94079096D01*
X93540619Y-94126715D01*
X93635857Y-94174334D01*
X93778714Y-94174334D01*
X93873952Y-94126715D01*
X93921571Y-94079096D01*
X93969190Y-93983858D01*
X93969190Y-93602905D01*
X93540619Y-94555286D02*
X93493000Y-94602905D01*
X93445381Y-94698143D01*
X93445381Y-94936239D01*
X93493000Y-95031477D01*
X93540619Y-95079096D01*
X93635857Y-95126715D01*
X93731095Y-95126715D01*
X93873952Y-95079096D01*
X94445381Y-94507667D01*
X94445381Y-95126715D01*
X94555181Y-105281505D02*
X93555181Y-105281505D01*
X93555181Y-105662458D01*
X93602800Y-105757696D01*
X93650419Y-105805315D01*
X93745657Y-105852934D01*
X93888514Y-105852934D01*
X93983752Y-105805315D01*
X94031371Y-105757696D01*
X94078990Y-105662458D01*
X94078990Y-105281505D01*
X93555181Y-106186267D02*
X93555181Y-106805315D01*
X93936133Y-106471981D01*
X93936133Y-106614839D01*
X93983752Y-106710077D01*
X94031371Y-106757696D01*
X94126610Y-106805315D01*
X94364705Y-106805315D01*
X94459943Y-106757696D01*
X94507562Y-106710077D01*
X94555181Y-106614839D01*
X94555181Y-106329124D01*
X94507562Y-106233886D01*
X94459943Y-106186267D01*
X94555181Y-117016305D02*
X93555181Y-117016305D01*
X93555181Y-117397258D01*
X93602800Y-117492496D01*
X93650419Y-117540115D01*
X93745657Y-117587734D01*
X93888514Y-117587734D01*
X93983752Y-117540115D01*
X94031371Y-117492496D01*
X94078990Y-117397258D01*
X94078990Y-117016305D01*
X93888514Y-118444877D02*
X94555181Y-118444877D01*
X93507562Y-118206781D02*
X94221848Y-117968686D01*
X94221848Y-118587734D01*
X119557181Y-99591905D02*
X118557181Y-99591905D01*
X118557181Y-99972858D01*
X118604800Y-100068096D01*
X118652419Y-100115715D01*
X118747657Y-100163334D01*
X118890514Y-100163334D01*
X118985752Y-100115715D01*
X119033371Y-100068096D01*
X119080990Y-99972858D01*
X119080990Y-99591905D01*
X118557181Y-101068096D02*
X118557181Y-100591905D01*
X119033371Y-100544286D01*
X118985752Y-100591905D01*
X118938133Y-100687143D01*
X118938133Y-100925239D01*
X118985752Y-101020477D01*
X119033371Y-101068096D01*
X119128610Y-101115715D01*
X119366705Y-101115715D01*
X119461943Y-101068096D01*
X119509562Y-101020477D01*
X119557181Y-100925239D01*
X119557181Y-100687143D01*
X119509562Y-100591905D01*
X119461943Y-100544286D01*
X119557181Y-111225105D02*
X118557181Y-111225105D01*
X118557181Y-111606058D01*
X118604800Y-111701296D01*
X118652419Y-111748915D01*
X118747657Y-111796534D01*
X118890514Y-111796534D01*
X118985752Y-111748915D01*
X119033371Y-111701296D01*
X119080990Y-111606058D01*
X119080990Y-111225105D01*
X118557181Y-112653677D02*
X118557181Y-112463200D01*
X118604800Y-112367962D01*
X118652419Y-112320343D01*
X118795276Y-112225105D01*
X118985752Y-112177486D01*
X119366705Y-112177486D01*
X119461943Y-112225105D01*
X119509562Y-112272724D01*
X119557181Y-112367962D01*
X119557181Y-112558439D01*
X119509562Y-112653677D01*
X119461943Y-112701296D01*
X119366705Y-112748915D01*
X119128610Y-112748915D01*
X119033371Y-112701296D01*
X118985752Y-112653677D01*
X118938133Y-112558439D01*
X118938133Y-112367962D01*
X118985752Y-112272724D01*
X119033371Y-112225105D01*
X119128610Y-112177486D01*
M02*
