G04 #@! TF.FileFunction,Soldermask,Top*
%FSLAX46Y46*%
G04 Gerber Fmt 4.6, Leading zero omitted, Abs format (unit mm)*
G04 Created by KiCad (PCBNEW 4.0.1-stable) date 3/12/2016 12:27:59 PM*
%MOMM*%
G01*
G04 APERTURE LIST*
%ADD10C,0.100000*%
%ADD11R,1.650000X1.400000*%
%ADD12R,0.800000X1.750000*%
%ADD13R,2.500000X2.000000*%
%ADD14R,2.300000X2.300000*%
%ADD15R,2.200000X2.300000*%
%ADD16C,1.924000*%
%ADD17R,1.100000X1.700000*%
%ADD18R,1.700000X1.100000*%
%ADD19R,1.460000X1.050000*%
G04 APERTURE END LIST*
D10*
D11*
X92651256Y-93760308D03*
X92651256Y-95760308D03*
X92710000Y-105629200D03*
X92710000Y-107629200D03*
X92760800Y-117160800D03*
X92760800Y-119160800D03*
X100330000Y-93361000D03*
X100330000Y-95361000D03*
X100431600Y-104968800D03*
X100431600Y-106968800D03*
X99822000Y-116703600D03*
X99822000Y-118703600D03*
X119824500Y-100822000D03*
X119824500Y-98822000D03*
X119824500Y-112556800D03*
X119824500Y-110556800D03*
X113233200Y-101396800D03*
X113233200Y-99396800D03*
X113233200Y-112963200D03*
X113233200Y-110963200D03*
D12*
X110780500Y-93607000D03*
X110130500Y-93607000D03*
X109480500Y-93607000D03*
X108830500Y-93607000D03*
X108180500Y-93607000D03*
D13*
X112580500Y-93482000D03*
X106380500Y-93482000D03*
D14*
X110680500Y-90932000D03*
X108280500Y-90932000D03*
D15*
X105480500Y-90932000D03*
X113480500Y-90932000D03*
D16*
X102743000Y-93091000D03*
X102743000Y-95591000D03*
X102852800Y-104769600D03*
X102852800Y-107269600D03*
X102852800Y-116504400D03*
X102852800Y-119004400D03*
X110354800Y-101580000D03*
X110354800Y-99080000D03*
X110354800Y-113213200D03*
X110354800Y-110713200D03*
D17*
X98813256Y-98062308D03*
X100713256Y-98062308D03*
X99278400Y-109880400D03*
X101178400Y-109880400D03*
X99227600Y-121970800D03*
X101127600Y-121970800D03*
X95379256Y-98189308D03*
X93479256Y-98189308D03*
X95539600Y-110236000D03*
X93639600Y-110236000D03*
X95590400Y-121970800D03*
X93690400Y-121970800D03*
X95440256Y-100602308D03*
X93540256Y-100602308D03*
X95488800Y-112674400D03*
X93588800Y-112674400D03*
D18*
X105600500Y-122870000D03*
X105600500Y-120970000D03*
D17*
X114640400Y-96926400D03*
X112740400Y-96926400D03*
X114640400Y-108610400D03*
X112740400Y-108610400D03*
X118239500Y-96774000D03*
X120139500Y-96774000D03*
X118239500Y-108394500D03*
X120139500Y-108394500D03*
X118239500Y-94551500D03*
X120139500Y-94551500D03*
X118239500Y-106108500D03*
X120139500Y-106108500D03*
D19*
X97477256Y-95710308D03*
X97477256Y-94760308D03*
X97477256Y-93810308D03*
X95277256Y-93810308D03*
X95277256Y-95710308D03*
X97518400Y-107426800D03*
X97518400Y-106476800D03*
X97518400Y-105526800D03*
X95318400Y-105526800D03*
X95318400Y-107426800D03*
X97518400Y-119110800D03*
X97518400Y-118160800D03*
X97518400Y-117210800D03*
X95318400Y-117210800D03*
X95318400Y-119110800D03*
X115638400Y-98922800D03*
X115638400Y-99872800D03*
X115638400Y-100822800D03*
X117838400Y-100822800D03*
X117838400Y-98922800D03*
X115689200Y-110606800D03*
X115689200Y-111556800D03*
X115689200Y-112506800D03*
X117889200Y-112506800D03*
X117889200Y-110606800D03*
M02*
