G04 #@! TF.FileFunction,Copper,L2,Bot,Signal*
%FSLAX46Y46*%
G04 Gerber Fmt 4.6, Leading zero omitted, Abs format (unit mm)*
G04 Created by KiCad (PCBNEW 4.0.1-stable) date 3/12/2016 12:27:59 PM*
%MOMM*%
G01*
G04 APERTURE LIST*
%ADD10C,0.100000*%
%ADD11R,1.198880X1.198880*%
%ADD12C,1.524000*%
%ADD13C,0.685800*%
%ADD14C,0.508000*%
G04 APERTURE END LIST*
D10*
D11*
X106553000Y-93413580D03*
X106553000Y-95511620D03*
X106603800Y-104818180D03*
X106603800Y-106916220D03*
X106629200Y-116908580D03*
X106629200Y-119006620D03*
X106527600Y-101175820D03*
X106527600Y-99077780D03*
X106629200Y-112910620D03*
X106629200Y-110812580D03*
D12*
X102743000Y-93091000D03*
X102743000Y-95591000D03*
X102852800Y-104769600D03*
X102852800Y-107269600D03*
X102852800Y-116504400D03*
X102852800Y-119004400D03*
X110354800Y-101580000D03*
X110354800Y-99080000D03*
X110354800Y-113213200D03*
X110354800Y-110713200D03*
D13*
X119951500Y-103187500D03*
X93091000Y-114681000D03*
X92773500Y-102362000D03*
X103187500Y-90170000D03*
X102743000Y-98044000D03*
X102768400Y-109880400D03*
X102819200Y-121970800D03*
X110337600Y-96926400D03*
X110388400Y-108610400D03*
D14*
X106527600Y-103187500D02*
X106527600Y-104741980D01*
X106527600Y-101175820D02*
X106527600Y-103187500D01*
X106527600Y-103187500D02*
X119951500Y-103187500D01*
X106527600Y-104741980D02*
X106603800Y-104818180D01*
X106629200Y-116908580D02*
X106629200Y-112910620D01*
X94861380Y-112910620D02*
X93091000Y-114681000D01*
X106629200Y-112910620D02*
X94861380Y-112910620D01*
X106527600Y-101175820D02*
X93959680Y-101175820D01*
X93959680Y-101175820D02*
X92773500Y-102362000D01*
X106553000Y-93413580D02*
X106553000Y-92306140D01*
X106553000Y-92306140D02*
X104416860Y-90170000D01*
X104416860Y-90170000D02*
X103187500Y-90170000D01*
X106553000Y-95511620D02*
X106553000Y-96619060D01*
X106553000Y-96619060D02*
X105128060Y-98044000D01*
X105128060Y-98044000D02*
X103227933Y-98044000D01*
X103227933Y-98044000D02*
X102743000Y-98044000D01*
X102768400Y-109880400D02*
X104747060Y-109880400D01*
X104747060Y-109880400D02*
X106603800Y-108023660D01*
X106603800Y-108023660D02*
X106603800Y-106916220D01*
X102819200Y-121970800D02*
X104772460Y-121970800D01*
X106629200Y-120114060D02*
X106629200Y-119006620D01*
X104772460Y-121970800D02*
X106629200Y-120114060D01*
X110337600Y-96926400D02*
X107571540Y-96926400D01*
X107571540Y-96926400D02*
X106527600Y-97970340D01*
X106527600Y-97970340D02*
X106527600Y-99077780D01*
X110388400Y-108610400D02*
X107723940Y-108610400D01*
X107723940Y-108610400D02*
X106629200Y-109705140D01*
X106629200Y-109705140D02*
X106629200Y-110812580D01*
M02*
