G04 #@! TF.FileFunction,Legend,Top*
%FSLAX46Y46*%
G04 Gerber Fmt 4.6, Leading zero omitted, Abs format (unit mm)*
G04 Created by KiCad (PCBNEW 4.0.1-stable) date 3/12/2016 12:27:59 PM*
%MOMM*%
G01*
G04 APERTURE LIST*
%ADD10C,0.100000*%
%ADD11C,0.200000*%
%ADD12C,0.150000*%
G04 APERTURE END LIST*
D10*
D11*
X116371881Y-119959381D02*
X116038547Y-119483190D01*
X115800452Y-119959381D02*
X115800452Y-118959381D01*
X116181405Y-118959381D01*
X116276643Y-119007000D01*
X116324262Y-119054619D01*
X116371881Y-119149857D01*
X116371881Y-119292714D01*
X116324262Y-119387952D01*
X116276643Y-119435571D01*
X116181405Y-119483190D01*
X115800452Y-119483190D01*
X117181405Y-119911762D02*
X117086167Y-119959381D01*
X116895690Y-119959381D01*
X116800452Y-119911762D01*
X116752833Y-119816524D01*
X116752833Y-119435571D01*
X116800452Y-119340333D01*
X116895690Y-119292714D01*
X117086167Y-119292714D01*
X117181405Y-119340333D01*
X117229024Y-119435571D01*
X117229024Y-119530810D01*
X116752833Y-119626048D01*
X117562357Y-119292714D02*
X117800452Y-119959381D01*
X118038548Y-119292714D01*
X118419500Y-119864143D02*
X118467119Y-119911762D01*
X118419500Y-119959381D01*
X118371881Y-119911762D01*
X118419500Y-119864143D01*
X118419500Y-119959381D01*
X119609976Y-119673667D02*
X120086167Y-119673667D01*
X119514738Y-119959381D02*
X119848071Y-118959381D01*
X120181405Y-119959381D01*
D12*
X107612501Y-122467714D02*
X107529167Y-123134381D01*
X107422024Y-122086762D02*
X107094643Y-122801048D01*
X107713691Y-122801048D01*
X108064881Y-123039143D02*
X108106548Y-123086762D01*
X108052976Y-123134381D01*
X108011310Y-123086762D01*
X108064881Y-123039143D01*
X108052976Y-123134381D01*
X108594643Y-122229619D02*
X108648214Y-122182000D01*
X108749404Y-122134381D01*
X108987500Y-122134381D01*
X109076786Y-122182000D01*
X109118453Y-122229619D01*
X109154167Y-122324857D01*
X109142262Y-122420095D01*
X109076786Y-122562952D01*
X108433928Y-123134381D01*
X109052976Y-123134381D01*
X109469643Y-122467714D02*
X109624404Y-123134381D01*
X109945834Y-122467714D01*
X111683929Y-122658190D02*
X111642263Y-122610571D01*
X111552977Y-122562952D01*
X111457739Y-122562952D01*
X111356549Y-122610571D01*
X111302976Y-122658190D01*
X111243452Y-122753429D01*
X111231548Y-122848667D01*
X111267262Y-122943905D01*
X111308930Y-122991524D01*
X111398215Y-123039143D01*
X111493453Y-123039143D01*
X111594644Y-122991524D01*
X111648215Y-122943905D01*
X111695834Y-122562952D02*
X111648215Y-122943905D01*
X111689882Y-122991524D01*
X111737501Y-122991524D01*
X111838691Y-122943905D01*
X111898215Y-122848667D01*
X111927977Y-122610571D01*
X111850596Y-122467714D01*
X111719644Y-122372476D01*
X111535120Y-122324857D01*
X111338691Y-122372476D01*
X111183929Y-122467714D01*
X111070834Y-122610571D01*
X110999405Y-122801048D01*
X111023215Y-122991524D01*
X111100595Y-123134381D01*
X111231548Y-123229619D01*
X111416072Y-123277238D01*
X111612501Y-123229619D01*
X111767262Y-123134381D01*
X113118453Y-122229619D02*
X113172024Y-122182000D01*
X113273214Y-122134381D01*
X113511310Y-122134381D01*
X113600596Y-122182000D01*
X113642263Y-122229619D01*
X113677977Y-122324857D01*
X113666072Y-122420095D01*
X113600596Y-122562952D01*
X112957738Y-123134381D01*
X113576786Y-123134381D01*
X114320833Y-122134381D02*
X114416072Y-122134381D01*
X114505358Y-122182000D01*
X114547025Y-122229619D01*
X114582739Y-122324857D01*
X114606548Y-122515333D01*
X114576786Y-122753429D01*
X114505358Y-122943905D01*
X114445834Y-123039143D01*
X114392263Y-123086762D01*
X114291072Y-123134381D01*
X114195833Y-123134381D01*
X114106548Y-123086762D01*
X114064881Y-123039143D01*
X114029167Y-122943905D01*
X114005357Y-122753429D01*
X114035119Y-122515333D01*
X114106548Y-122324857D01*
X114166072Y-122229619D01*
X114219643Y-122182000D01*
X114320833Y-122134381D01*
X115273214Y-122134381D02*
X115368453Y-122134381D01*
X115457739Y-122182000D01*
X115499406Y-122229619D01*
X115535120Y-122324857D01*
X115558929Y-122515333D01*
X115529167Y-122753429D01*
X115457739Y-122943905D01*
X115398215Y-123039143D01*
X115344644Y-123086762D01*
X115243453Y-123134381D01*
X115148214Y-123134381D01*
X115058929Y-123086762D01*
X115017262Y-123039143D01*
X114981548Y-122943905D01*
X114957738Y-122753429D01*
X114987500Y-122515333D01*
X115058929Y-122324857D01*
X115118453Y-122229619D01*
X115172024Y-122182000D01*
X115273214Y-122134381D01*
X116672024Y-123134381D02*
X116755358Y-122467714D01*
X116743453Y-122562952D02*
X116797024Y-122515333D01*
X116898215Y-122467714D01*
X117041073Y-122467714D01*
X117130358Y-122515333D01*
X117166073Y-122610571D01*
X117100596Y-123134381D01*
X117166073Y-122610571D02*
X117225596Y-122515333D01*
X117326787Y-122467714D01*
X117469644Y-122467714D01*
X117558929Y-122515333D01*
X117594644Y-122610571D01*
X117529167Y-123134381D01*
X117993453Y-122848667D02*
X118469644Y-122848667D01*
X117862500Y-123134381D02*
X118320833Y-122134381D01*
X118529167Y-123134381D01*
X120011311Y-123086762D02*
X119910120Y-123134381D01*
X119719643Y-123134381D01*
X119630358Y-123086762D01*
X119594644Y-122991524D01*
X119642263Y-122610571D01*
X119701786Y-122515333D01*
X119802977Y-122467714D01*
X119993454Y-122467714D01*
X120082739Y-122515333D01*
X120118454Y-122610571D01*
X120106549Y-122705810D01*
X119618453Y-122801048D01*
X120910120Y-123134381D02*
X120975597Y-122610571D01*
X120939882Y-122515333D01*
X120850597Y-122467714D01*
X120660120Y-122467714D01*
X120558929Y-122515333D01*
X120916073Y-123086762D02*
X120814882Y-123134381D01*
X120576786Y-123134381D01*
X120487501Y-123086762D01*
X120451787Y-122991524D01*
X120463691Y-122896286D01*
X120523215Y-122801048D01*
X120624405Y-122753429D01*
X120862501Y-122753429D01*
X120963692Y-122705810D01*
X121398215Y-123039143D02*
X121439882Y-123086762D01*
X121386310Y-123134381D01*
X121344644Y-123086762D01*
X121398215Y-123039143D01*
X121386310Y-123134381D01*
D11*
X108546000Y-118181381D02*
X108069809Y-118181381D01*
X108069809Y-117181381D01*
X108879333Y-118181381D02*
X108879333Y-117514714D01*
X108879333Y-117181381D02*
X108831714Y-117229000D01*
X108879333Y-117276619D01*
X108926952Y-117229000D01*
X108879333Y-117181381D01*
X108879333Y-117276619D01*
X109355523Y-118181381D02*
X109355523Y-117181381D01*
X109736476Y-117181381D01*
X109831714Y-117229000D01*
X109879333Y-117276619D01*
X109926952Y-117371857D01*
X109926952Y-117514714D01*
X109879333Y-117609952D01*
X109831714Y-117657571D01*
X109736476Y-117705190D01*
X109355523Y-117705190D01*
X110498380Y-118181381D02*
X110403142Y-118133762D01*
X110355523Y-118086143D01*
X110307904Y-117990905D01*
X110307904Y-117705190D01*
X110355523Y-117609952D01*
X110403142Y-117562333D01*
X110498380Y-117514714D01*
X110641238Y-117514714D01*
X110736476Y-117562333D01*
X110784095Y-117609952D01*
X110831714Y-117705190D01*
X110831714Y-117990905D01*
X110784095Y-118086143D01*
X110736476Y-118133762D01*
X110641238Y-118181381D01*
X110498380Y-118181381D01*
X112593619Y-118086143D02*
X112546000Y-118133762D01*
X112403143Y-118181381D01*
X112307905Y-118181381D01*
X112165047Y-118133762D01*
X112069809Y-118038524D01*
X112022190Y-117943286D01*
X111974571Y-117752810D01*
X111974571Y-117609952D01*
X112022190Y-117419476D01*
X112069809Y-117324238D01*
X112165047Y-117229000D01*
X112307905Y-117181381D01*
X112403143Y-117181381D01*
X112546000Y-117229000D01*
X112593619Y-117276619D01*
X113022190Y-118181381D02*
X113022190Y-117181381D01*
X113450762Y-118181381D02*
X113450762Y-117657571D01*
X113403143Y-117562333D01*
X113307905Y-117514714D01*
X113165047Y-117514714D01*
X113069809Y-117562333D01*
X113022190Y-117609952D01*
X114355524Y-118181381D02*
X114355524Y-117657571D01*
X114307905Y-117562333D01*
X114212667Y-117514714D01*
X114022190Y-117514714D01*
X113926952Y-117562333D01*
X114355524Y-118133762D02*
X114260286Y-118181381D01*
X114022190Y-118181381D01*
X113926952Y-118133762D01*
X113879333Y-118038524D01*
X113879333Y-117943286D01*
X113926952Y-117848048D01*
X114022190Y-117800429D01*
X114260286Y-117800429D01*
X114355524Y-117752810D01*
X114831714Y-118181381D02*
X114831714Y-117514714D01*
X114831714Y-117705190D02*
X114879333Y-117609952D01*
X114926952Y-117562333D01*
X115022190Y-117514714D01*
X115117429Y-117514714D01*
X115879334Y-117514714D02*
X115879334Y-118324238D01*
X115831715Y-118419476D01*
X115784096Y-118467095D01*
X115688857Y-118514714D01*
X115546000Y-118514714D01*
X115450762Y-118467095D01*
X115879334Y-118133762D02*
X115784096Y-118181381D01*
X115593619Y-118181381D01*
X115498381Y-118133762D01*
X115450762Y-118086143D01*
X115403143Y-117990905D01*
X115403143Y-117705190D01*
X115450762Y-117609952D01*
X115498381Y-117562333D01*
X115593619Y-117514714D01*
X115784096Y-117514714D01*
X115879334Y-117562333D01*
X116736477Y-118133762D02*
X116641239Y-118181381D01*
X116450762Y-118181381D01*
X116355524Y-118133762D01*
X116307905Y-118038524D01*
X116307905Y-117657571D01*
X116355524Y-117562333D01*
X116450762Y-117514714D01*
X116641239Y-117514714D01*
X116736477Y-117562333D01*
X116784096Y-117657571D01*
X116784096Y-117752810D01*
X116307905Y-117848048D01*
X117212667Y-118181381D02*
X117212667Y-117514714D01*
X117212667Y-117705190D02*
X117260286Y-117609952D01*
X117307905Y-117562333D01*
X117403143Y-117514714D01*
X117498382Y-117514714D01*
X118498382Y-117181381D02*
X119165049Y-118181381D01*
X119165049Y-117181381D02*
X118498382Y-118181381D01*
X120022192Y-117181381D02*
X119546001Y-117181381D01*
X119498382Y-117657571D01*
X119546001Y-117609952D01*
X119641239Y-117562333D01*
X119879335Y-117562333D01*
X119974573Y-117609952D01*
X120022192Y-117657571D01*
X120069811Y-117752810D01*
X120069811Y-117990905D01*
X120022192Y-118086143D01*
X119974573Y-118133762D01*
X119879335Y-118181381D01*
X119641239Y-118181381D01*
X119546001Y-118133762D01*
X119498382Y-118086143D01*
D12*
X93501256Y-95260308D02*
X93501256Y-94260308D01*
X91801256Y-94260308D02*
X91801256Y-95260308D01*
X93560000Y-107129200D02*
X93560000Y-106129200D01*
X91860000Y-106129200D02*
X91860000Y-107129200D01*
X93610800Y-118660800D02*
X93610800Y-117660800D01*
X91910800Y-117660800D02*
X91910800Y-118660800D01*
X101180000Y-94861000D02*
X101180000Y-93861000D01*
X99480000Y-93861000D02*
X99480000Y-94861000D01*
X101281600Y-106468800D02*
X101281600Y-105468800D01*
X99581600Y-105468800D02*
X99581600Y-106468800D01*
X100672000Y-118203600D02*
X100672000Y-117203600D01*
X98972000Y-117203600D02*
X98972000Y-118203600D01*
X118974500Y-99322000D02*
X118974500Y-100322000D01*
X120674500Y-100322000D02*
X120674500Y-99322000D01*
X118974500Y-111056800D02*
X118974500Y-112056800D01*
X120674500Y-112056800D02*
X120674500Y-111056800D01*
X112383200Y-99896800D02*
X112383200Y-100896800D01*
X114083200Y-100896800D02*
X114083200Y-99896800D01*
X112383200Y-111463200D02*
X112383200Y-112463200D01*
X114083200Y-112463200D02*
X114083200Y-111463200D01*
X110921921Y-94932000D02*
G75*
G03X110921921Y-94932000I-141421J0D01*
G01*
X111080500Y-89532000D02*
X111080500Y-87932000D01*
X107880500Y-89532000D02*
X107880500Y-88032000D01*
X108280500Y-89532000D02*
X107880500Y-89532000D01*
X108280500Y-88032000D02*
X108280500Y-89532000D01*
X108980500Y-88032000D02*
X108980500Y-89532000D01*
X108980500Y-89532000D02*
X108580500Y-89532000D01*
X108580500Y-89532000D02*
X108580500Y-88032000D01*
X109280500Y-89532000D02*
X109280500Y-88032000D01*
X109680500Y-89532000D02*
X109280500Y-89532000D01*
X109680500Y-88032000D02*
X109680500Y-89532000D01*
X110380500Y-88032000D02*
X110380500Y-89532000D01*
X110380500Y-89532000D02*
X109980500Y-89532000D01*
X109980500Y-89532000D02*
X109980500Y-88032000D01*
X110980500Y-89532000D02*
X110980500Y-88132000D01*
X110980500Y-88132000D02*
X110780500Y-88132000D01*
X110780500Y-88132000D02*
X110780500Y-89532000D01*
X110780500Y-89532000D02*
X110880500Y-89532000D01*
X110880500Y-89532000D02*
X110880500Y-88232000D01*
X110980500Y-87932000D02*
X110980500Y-89532000D01*
X111080500Y-89532000D02*
X110680500Y-89532000D01*
X110680500Y-89532000D02*
X110680500Y-88032000D01*
X110680500Y-88032000D02*
X110980500Y-88032000D01*
X109455500Y-87932000D02*
X105405500Y-87932000D01*
X105380500Y-87932000D02*
X105380500Y-89432000D01*
X113580500Y-87932000D02*
X113580500Y-89432000D01*
X109505500Y-87932000D02*
X113555500Y-87932000D01*
X100363256Y-98937308D02*
X99163256Y-98937308D01*
X99163256Y-97187308D02*
X100363256Y-97187308D01*
X100828400Y-110755400D02*
X99628400Y-110755400D01*
X99628400Y-109005400D02*
X100828400Y-109005400D01*
X100777600Y-122845800D02*
X99577600Y-122845800D01*
X99577600Y-121095800D02*
X100777600Y-121095800D01*
X93829256Y-97314308D02*
X95029256Y-97314308D01*
X95029256Y-99064308D02*
X93829256Y-99064308D01*
X93989600Y-109361000D02*
X95189600Y-109361000D01*
X95189600Y-111111000D02*
X93989600Y-111111000D01*
X94040400Y-121095800D02*
X95240400Y-121095800D01*
X95240400Y-122845800D02*
X94040400Y-122845800D01*
X93890256Y-99727308D02*
X95090256Y-99727308D01*
X95090256Y-101477308D02*
X93890256Y-101477308D01*
X93938800Y-111799400D02*
X95138800Y-111799400D01*
X95138800Y-113549400D02*
X93938800Y-113549400D01*
X106475500Y-121320000D02*
X106475500Y-122520000D01*
X104725500Y-122520000D02*
X104725500Y-121320000D01*
X113090400Y-96051400D02*
X114290400Y-96051400D01*
X114290400Y-97801400D02*
X113090400Y-97801400D01*
X113090400Y-107735400D02*
X114290400Y-107735400D01*
X114290400Y-109485400D02*
X113090400Y-109485400D01*
X119789500Y-97649000D02*
X118589500Y-97649000D01*
X118589500Y-95899000D02*
X119789500Y-95899000D01*
X119789500Y-109269500D02*
X118589500Y-109269500D01*
X118589500Y-107519500D02*
X119789500Y-107519500D01*
X119789500Y-95426500D02*
X118589500Y-95426500D01*
X118589500Y-93676500D02*
X119789500Y-93676500D01*
X119789500Y-106983500D02*
X118589500Y-106983500D01*
X118589500Y-105233500D02*
X119789500Y-105233500D01*
X96777256Y-96460308D02*
G75*
G03X96777256Y-96460308I-100000J0D01*
G01*
X96127256Y-96210308D02*
X96627256Y-96210308D01*
X96127256Y-93310308D02*
X96127256Y-96210308D01*
X96627256Y-93310308D02*
X96127256Y-93310308D01*
X96627256Y-96210308D02*
X96627256Y-93310308D01*
X96818400Y-108176800D02*
G75*
G03X96818400Y-108176800I-100000J0D01*
G01*
X96168400Y-107926800D02*
X96668400Y-107926800D01*
X96168400Y-105026800D02*
X96168400Y-107926800D01*
X96668400Y-105026800D02*
X96168400Y-105026800D01*
X96668400Y-107926800D02*
X96668400Y-105026800D01*
X96818400Y-119860800D02*
G75*
G03X96818400Y-119860800I-100000J0D01*
G01*
X96168400Y-119610800D02*
X96668400Y-119610800D01*
X96168400Y-116710800D02*
X96168400Y-119610800D01*
X96668400Y-116710800D02*
X96168400Y-116710800D01*
X96668400Y-119610800D02*
X96668400Y-116710800D01*
X116538400Y-98172800D02*
G75*
G03X116538400Y-98172800I-100000J0D01*
G01*
X116988400Y-98422800D02*
X116488400Y-98422800D01*
X116988400Y-101322800D02*
X116988400Y-98422800D01*
X116488400Y-101322800D02*
X116988400Y-101322800D01*
X116488400Y-98422800D02*
X116488400Y-101322800D01*
X116589200Y-109856800D02*
G75*
G03X116589200Y-109856800I-100000J0D01*
G01*
X117039200Y-110106800D02*
X116539200Y-110106800D01*
X117039200Y-113006800D02*
X117039200Y-110106800D01*
X116539200Y-113006800D02*
X117039200Y-113006800D01*
X116539200Y-110106800D02*
X116539200Y-113006800D01*
X92357590Y-92450451D02*
X92309971Y-92498070D01*
X92167114Y-92545689D01*
X92071876Y-92545689D01*
X91929018Y-92498070D01*
X91833780Y-92402832D01*
X91786161Y-92307594D01*
X91738542Y-92117118D01*
X91738542Y-91974260D01*
X91786161Y-91783784D01*
X91833780Y-91688546D01*
X91929018Y-91593308D01*
X92071876Y-91545689D01*
X92167114Y-91545689D01*
X92309971Y-91593308D01*
X92357590Y-91640927D01*
X93309971Y-92545689D02*
X92738542Y-92545689D01*
X93024256Y-92545689D02*
X93024256Y-91545689D01*
X92929018Y-91688546D01*
X92833780Y-91783784D01*
X92738542Y-91831403D01*
X92492534Y-104243143D02*
X92444915Y-104290762D01*
X92302058Y-104338381D01*
X92206820Y-104338381D01*
X92063962Y-104290762D01*
X91968724Y-104195524D01*
X91921105Y-104100286D01*
X91873486Y-103909810D01*
X91873486Y-103766952D01*
X91921105Y-103576476D01*
X91968724Y-103481238D01*
X92063962Y-103386000D01*
X92206820Y-103338381D01*
X92302058Y-103338381D01*
X92444915Y-103386000D01*
X92492534Y-103433619D01*
X92873486Y-103433619D02*
X92921105Y-103386000D01*
X93016343Y-103338381D01*
X93254439Y-103338381D01*
X93349677Y-103386000D01*
X93397296Y-103433619D01*
X93444915Y-103528857D01*
X93444915Y-103624095D01*
X93397296Y-103766952D01*
X92825867Y-104338381D01*
X93444915Y-104338381D01*
X92594134Y-115876343D02*
X92546515Y-115923962D01*
X92403658Y-115971581D01*
X92308420Y-115971581D01*
X92165562Y-115923962D01*
X92070324Y-115828724D01*
X92022705Y-115733486D01*
X91975086Y-115543010D01*
X91975086Y-115400152D01*
X92022705Y-115209676D01*
X92070324Y-115114438D01*
X92165562Y-115019200D01*
X92308420Y-114971581D01*
X92403658Y-114971581D01*
X92546515Y-115019200D01*
X92594134Y-115066819D01*
X92927467Y-114971581D02*
X93546515Y-114971581D01*
X93213181Y-115352533D01*
X93356039Y-115352533D01*
X93451277Y-115400152D01*
X93498896Y-115447771D01*
X93546515Y-115543010D01*
X93546515Y-115781105D01*
X93498896Y-115876343D01*
X93451277Y-115923962D01*
X93356039Y-115971581D01*
X93070324Y-115971581D01*
X92975086Y-115923962D01*
X92927467Y-115876343D01*
X100036334Y-91924143D02*
X99988715Y-91971762D01*
X99845858Y-92019381D01*
X99750620Y-92019381D01*
X99607762Y-91971762D01*
X99512524Y-91876524D01*
X99464905Y-91781286D01*
X99417286Y-91590810D01*
X99417286Y-91447952D01*
X99464905Y-91257476D01*
X99512524Y-91162238D01*
X99607762Y-91067000D01*
X99750620Y-91019381D01*
X99845858Y-91019381D01*
X99988715Y-91067000D01*
X100036334Y-91114619D01*
X100893477Y-91352714D02*
X100893477Y-92019381D01*
X100655381Y-90971762D02*
X100417286Y-91686048D01*
X101036334Y-91686048D01*
X100264934Y-103531943D02*
X100217315Y-103579562D01*
X100074458Y-103627181D01*
X99979220Y-103627181D01*
X99836362Y-103579562D01*
X99741124Y-103484324D01*
X99693505Y-103389086D01*
X99645886Y-103198610D01*
X99645886Y-103055752D01*
X99693505Y-102865276D01*
X99741124Y-102770038D01*
X99836362Y-102674800D01*
X99979220Y-102627181D01*
X100074458Y-102627181D01*
X100217315Y-102674800D01*
X100264934Y-102722419D01*
X101169696Y-102627181D02*
X100693505Y-102627181D01*
X100645886Y-103103371D01*
X100693505Y-103055752D01*
X100788743Y-103008133D01*
X101026839Y-103008133D01*
X101122077Y-103055752D01*
X101169696Y-103103371D01*
X101217315Y-103198610D01*
X101217315Y-103436705D01*
X101169696Y-103531943D01*
X101122077Y-103579562D01*
X101026839Y-103627181D01*
X100788743Y-103627181D01*
X100693505Y-103579562D01*
X100645886Y-103531943D01*
X99655334Y-115368343D02*
X99607715Y-115415962D01*
X99464858Y-115463581D01*
X99369620Y-115463581D01*
X99226762Y-115415962D01*
X99131524Y-115320724D01*
X99083905Y-115225486D01*
X99036286Y-115035010D01*
X99036286Y-114892152D01*
X99083905Y-114701676D01*
X99131524Y-114606438D01*
X99226762Y-114511200D01*
X99369620Y-114463581D01*
X99464858Y-114463581D01*
X99607715Y-114511200D01*
X99655334Y-114558819D01*
X100512477Y-114463581D02*
X100322000Y-114463581D01*
X100226762Y-114511200D01*
X100179143Y-114558819D01*
X100083905Y-114701676D01*
X100036286Y-114892152D01*
X100036286Y-115273105D01*
X100083905Y-115368343D01*
X100131524Y-115415962D01*
X100226762Y-115463581D01*
X100417239Y-115463581D01*
X100512477Y-115415962D01*
X100560096Y-115368343D01*
X100607715Y-115273105D01*
X100607715Y-115035010D01*
X100560096Y-114939771D01*
X100512477Y-114892152D01*
X100417239Y-114844533D01*
X100226762Y-114844533D01*
X100131524Y-114892152D01*
X100083905Y-114939771D01*
X100036286Y-115035010D01*
X118081643Y-99988666D02*
X118129262Y-100036285D01*
X118176881Y-100179142D01*
X118176881Y-100274380D01*
X118129262Y-100417238D01*
X118034024Y-100512476D01*
X117938786Y-100560095D01*
X117748310Y-100607714D01*
X117605452Y-100607714D01*
X117414976Y-100560095D01*
X117319738Y-100512476D01*
X117224500Y-100417238D01*
X117176881Y-100274380D01*
X117176881Y-100179142D01*
X117224500Y-100036285D01*
X117272119Y-99988666D01*
X117176881Y-99655333D02*
X117176881Y-98988666D01*
X118176881Y-99417238D01*
X119657834Y-114466643D02*
X119610215Y-114514262D01*
X119467358Y-114561881D01*
X119372120Y-114561881D01*
X119229262Y-114514262D01*
X119134024Y-114419024D01*
X119086405Y-114323786D01*
X119038786Y-114133310D01*
X119038786Y-113990452D01*
X119086405Y-113799976D01*
X119134024Y-113704738D01*
X119229262Y-113609500D01*
X119372120Y-113561881D01*
X119467358Y-113561881D01*
X119610215Y-113609500D01*
X119657834Y-113657119D01*
X120229262Y-113990452D02*
X120134024Y-113942833D01*
X120086405Y-113895214D01*
X120038786Y-113799976D01*
X120038786Y-113752357D01*
X120086405Y-113657119D01*
X120134024Y-113609500D01*
X120229262Y-113561881D01*
X120419739Y-113561881D01*
X120514977Y-113609500D01*
X120562596Y-113657119D01*
X120610215Y-113752357D01*
X120610215Y-113799976D01*
X120562596Y-113895214D01*
X120514977Y-113942833D01*
X120419739Y-113990452D01*
X120229262Y-113990452D01*
X120134024Y-114038071D01*
X120086405Y-114085690D01*
X120038786Y-114180929D01*
X120038786Y-114371405D01*
X120086405Y-114466643D01*
X120134024Y-114514262D01*
X120229262Y-114561881D01*
X120419739Y-114561881D01*
X120514977Y-114514262D01*
X120562596Y-114466643D01*
X120610215Y-114371405D01*
X120610215Y-114180929D01*
X120562596Y-114085690D01*
X120514977Y-114038071D01*
X120419739Y-113990452D01*
X113117334Y-103379543D02*
X113069715Y-103427162D01*
X112926858Y-103474781D01*
X112831620Y-103474781D01*
X112688762Y-103427162D01*
X112593524Y-103331924D01*
X112545905Y-103236686D01*
X112498286Y-103046210D01*
X112498286Y-102903352D01*
X112545905Y-102712876D01*
X112593524Y-102617638D01*
X112688762Y-102522400D01*
X112831620Y-102474781D01*
X112926858Y-102474781D01*
X113069715Y-102522400D01*
X113117334Y-102570019D01*
X113593524Y-103474781D02*
X113784000Y-103474781D01*
X113879239Y-103427162D01*
X113926858Y-103379543D01*
X114022096Y-103236686D01*
X114069715Y-103046210D01*
X114069715Y-102665257D01*
X114022096Y-102570019D01*
X113974477Y-102522400D01*
X113879239Y-102474781D01*
X113688762Y-102474781D01*
X113593524Y-102522400D01*
X113545905Y-102570019D01*
X113498286Y-102665257D01*
X113498286Y-102903352D01*
X113545905Y-102998590D01*
X113593524Y-103046210D01*
X113688762Y-103093829D01*
X113879239Y-103093829D01*
X113974477Y-103046210D01*
X114022096Y-102998590D01*
X114069715Y-102903352D01*
X112577643Y-114847643D02*
X112530024Y-114895262D01*
X112387167Y-114942881D01*
X112291929Y-114942881D01*
X112149071Y-114895262D01*
X112053833Y-114800024D01*
X112006214Y-114704786D01*
X111958595Y-114514310D01*
X111958595Y-114371452D01*
X112006214Y-114180976D01*
X112053833Y-114085738D01*
X112149071Y-113990500D01*
X112291929Y-113942881D01*
X112387167Y-113942881D01*
X112530024Y-113990500D01*
X112577643Y-114038119D01*
X113530024Y-114942881D02*
X112958595Y-114942881D01*
X113244309Y-114942881D02*
X113244309Y-113942881D01*
X113149071Y-114085738D01*
X113053833Y-114180976D01*
X112958595Y-114228595D01*
X114149071Y-113942881D02*
X114244310Y-113942881D01*
X114339548Y-113990500D01*
X114387167Y-114038119D01*
X114434786Y-114133357D01*
X114482405Y-114323833D01*
X114482405Y-114561929D01*
X114434786Y-114752405D01*
X114387167Y-114847643D01*
X114339548Y-114895262D01*
X114244310Y-114942881D01*
X114149071Y-114942881D01*
X114053833Y-114895262D01*
X114006214Y-114847643D01*
X113958595Y-114752405D01*
X113910976Y-114561929D01*
X113910976Y-114323833D01*
X113958595Y-114133357D01*
X114006214Y-114038119D01*
X114053833Y-113990500D01*
X114149071Y-113942881D01*
X106068905Y-96146881D02*
X106068905Y-95146881D01*
X106449858Y-95146881D01*
X106545096Y-95194500D01*
X106592715Y-95242119D01*
X106640334Y-95337357D01*
X106640334Y-95480214D01*
X106592715Y-95575452D01*
X106545096Y-95623071D01*
X106449858Y-95670690D01*
X106068905Y-95670690D01*
X107592715Y-96146881D02*
X107021286Y-96146881D01*
X107307000Y-96146881D02*
X107307000Y-95146881D01*
X107211762Y-95289738D01*
X107116524Y-95384976D01*
X107021286Y-95432595D01*
X99469590Y-100419689D02*
X99136256Y-99943498D01*
X98898161Y-100419689D02*
X98898161Y-99419689D01*
X99279114Y-99419689D01*
X99374352Y-99467308D01*
X99421971Y-99514927D01*
X99469590Y-99610165D01*
X99469590Y-99753022D01*
X99421971Y-99848260D01*
X99374352Y-99895879D01*
X99279114Y-99943498D01*
X98898161Y-99943498D01*
X100421971Y-100419689D02*
X99850542Y-100419689D01*
X100136256Y-100419689D02*
X100136256Y-99419689D01*
X100041018Y-99562546D01*
X99945780Y-99657784D01*
X99850542Y-99705403D01*
X100112534Y-112263181D02*
X99779200Y-111786990D01*
X99541105Y-112263181D02*
X99541105Y-111263181D01*
X99922058Y-111263181D01*
X100017296Y-111310800D01*
X100064915Y-111358419D01*
X100112534Y-111453657D01*
X100112534Y-111596514D01*
X100064915Y-111691752D01*
X100017296Y-111739371D01*
X99922058Y-111786990D01*
X99541105Y-111786990D01*
X100493486Y-111358419D02*
X100541105Y-111310800D01*
X100636343Y-111263181D01*
X100874439Y-111263181D01*
X100969677Y-111310800D01*
X101017296Y-111358419D01*
X101064915Y-111453657D01*
X101064915Y-111548895D01*
X101017296Y-111691752D01*
X100445867Y-112263181D01*
X101064915Y-112263181D01*
X102766834Y-122499381D02*
X102433500Y-122023190D01*
X102195405Y-122499381D02*
X102195405Y-121499381D01*
X102576358Y-121499381D01*
X102671596Y-121547000D01*
X102719215Y-121594619D01*
X102766834Y-121689857D01*
X102766834Y-121832714D01*
X102719215Y-121927952D01*
X102671596Y-121975571D01*
X102576358Y-122023190D01*
X102195405Y-122023190D01*
X103100167Y-121499381D02*
X103719215Y-121499381D01*
X103385881Y-121880333D01*
X103528739Y-121880333D01*
X103623977Y-121927952D01*
X103671596Y-121975571D01*
X103719215Y-122070810D01*
X103719215Y-122308905D01*
X103671596Y-122404143D01*
X103623977Y-122451762D01*
X103528739Y-122499381D01*
X103243024Y-122499381D01*
X103147786Y-122451762D01*
X103100167Y-122404143D01*
X96929590Y-98641689D02*
X96596256Y-98165498D01*
X96358161Y-98641689D02*
X96358161Y-97641689D01*
X96739114Y-97641689D01*
X96834352Y-97689308D01*
X96881971Y-97736927D01*
X96929590Y-97832165D01*
X96929590Y-97975022D01*
X96881971Y-98070260D01*
X96834352Y-98117879D01*
X96739114Y-98165498D01*
X96358161Y-98165498D01*
X97786733Y-97975022D02*
X97786733Y-98641689D01*
X97548637Y-97594070D02*
X97310542Y-98308356D01*
X97929590Y-98308356D01*
X97216934Y-110739181D02*
X96883600Y-110262990D01*
X96645505Y-110739181D02*
X96645505Y-109739181D01*
X97026458Y-109739181D01*
X97121696Y-109786800D01*
X97169315Y-109834419D01*
X97216934Y-109929657D01*
X97216934Y-110072514D01*
X97169315Y-110167752D01*
X97121696Y-110215371D01*
X97026458Y-110262990D01*
X96645505Y-110262990D01*
X98121696Y-109739181D02*
X97645505Y-109739181D01*
X97597886Y-110215371D01*
X97645505Y-110167752D01*
X97740743Y-110120133D01*
X97978839Y-110120133D01*
X98074077Y-110167752D01*
X98121696Y-110215371D01*
X98169315Y-110310610D01*
X98169315Y-110548705D01*
X98121696Y-110643943D01*
X98074077Y-110691562D01*
X97978839Y-110739181D01*
X97740743Y-110739181D01*
X97645505Y-110691562D01*
X97597886Y-110643943D01*
X97216934Y-122473981D02*
X96883600Y-121997790D01*
X96645505Y-122473981D02*
X96645505Y-121473981D01*
X97026458Y-121473981D01*
X97121696Y-121521600D01*
X97169315Y-121569219D01*
X97216934Y-121664457D01*
X97216934Y-121807314D01*
X97169315Y-121902552D01*
X97121696Y-121950171D01*
X97026458Y-121997790D01*
X96645505Y-121997790D01*
X98074077Y-121473981D02*
X97883600Y-121473981D01*
X97788362Y-121521600D01*
X97740743Y-121569219D01*
X97645505Y-121712076D01*
X97597886Y-121902552D01*
X97597886Y-122283505D01*
X97645505Y-122378743D01*
X97693124Y-122426362D01*
X97788362Y-122473981D01*
X97978839Y-122473981D01*
X98074077Y-122426362D01*
X98121696Y-122378743D01*
X98169315Y-122283505D01*
X98169315Y-122045410D01*
X98121696Y-121950171D01*
X98074077Y-121902552D01*
X97978839Y-121854933D01*
X97788362Y-121854933D01*
X97693124Y-121902552D01*
X97645505Y-121950171D01*
X97597886Y-122045410D01*
X96929590Y-100800689D02*
X96596256Y-100324498D01*
X96358161Y-100800689D02*
X96358161Y-99800689D01*
X96739114Y-99800689D01*
X96834352Y-99848308D01*
X96881971Y-99895927D01*
X96929590Y-99991165D01*
X96929590Y-100134022D01*
X96881971Y-100229260D01*
X96834352Y-100276879D01*
X96739114Y-100324498D01*
X96358161Y-100324498D01*
X97262923Y-99800689D02*
X97929590Y-99800689D01*
X97501018Y-100800689D01*
X97318534Y-113126781D02*
X96985200Y-112650590D01*
X96747105Y-113126781D02*
X96747105Y-112126781D01*
X97128058Y-112126781D01*
X97223296Y-112174400D01*
X97270915Y-112222019D01*
X97318534Y-112317257D01*
X97318534Y-112460114D01*
X97270915Y-112555352D01*
X97223296Y-112602971D01*
X97128058Y-112650590D01*
X96747105Y-112650590D01*
X97889962Y-112555352D02*
X97794724Y-112507733D01*
X97747105Y-112460114D01*
X97699486Y-112364876D01*
X97699486Y-112317257D01*
X97747105Y-112222019D01*
X97794724Y-112174400D01*
X97889962Y-112126781D01*
X98080439Y-112126781D01*
X98175677Y-112174400D01*
X98223296Y-112222019D01*
X98270915Y-112317257D01*
X98270915Y-112364876D01*
X98223296Y-112460114D01*
X98175677Y-112507733D01*
X98080439Y-112555352D01*
X97889962Y-112555352D01*
X97794724Y-112602971D01*
X97747105Y-112650590D01*
X97699486Y-112745829D01*
X97699486Y-112936305D01*
X97747105Y-113031543D01*
X97794724Y-113079162D01*
X97889962Y-113126781D01*
X98080439Y-113126781D01*
X98175677Y-113079162D01*
X98223296Y-113031543D01*
X98270915Y-112936305D01*
X98270915Y-112745829D01*
X98223296Y-112650590D01*
X98175677Y-112602971D01*
X98080439Y-112555352D01*
X105433834Y-119895881D02*
X105100500Y-119419690D01*
X104862405Y-119895881D02*
X104862405Y-118895881D01*
X105243358Y-118895881D01*
X105338596Y-118943500D01*
X105386215Y-118991119D01*
X105433834Y-119086357D01*
X105433834Y-119229214D01*
X105386215Y-119324452D01*
X105338596Y-119372071D01*
X105243358Y-119419690D01*
X104862405Y-119419690D01*
X105910024Y-119895881D02*
X106100500Y-119895881D01*
X106195739Y-119848262D01*
X106243358Y-119800643D01*
X106338596Y-119657786D01*
X106386215Y-119467310D01*
X106386215Y-119086357D01*
X106338596Y-118991119D01*
X106290977Y-118943500D01*
X106195739Y-118895881D01*
X106005262Y-118895881D01*
X105910024Y-118943500D01*
X105862405Y-118991119D01*
X105814786Y-119086357D01*
X105814786Y-119324452D01*
X105862405Y-119419690D01*
X105910024Y-119467310D01*
X106005262Y-119514929D01*
X106195739Y-119514929D01*
X106290977Y-119467310D01*
X106338596Y-119419690D01*
X106386215Y-119324452D01*
X109847143Y-97429581D02*
X109513809Y-96953390D01*
X109275714Y-97429581D02*
X109275714Y-96429581D01*
X109656667Y-96429581D01*
X109751905Y-96477200D01*
X109799524Y-96524819D01*
X109847143Y-96620057D01*
X109847143Y-96762914D01*
X109799524Y-96858152D01*
X109751905Y-96905771D01*
X109656667Y-96953390D01*
X109275714Y-96953390D01*
X110799524Y-97429581D02*
X110228095Y-97429581D01*
X110513809Y-97429581D02*
X110513809Y-96429581D01*
X110418571Y-96572438D01*
X110323333Y-96667676D01*
X110228095Y-96715295D01*
X111418571Y-96429581D02*
X111513810Y-96429581D01*
X111609048Y-96477200D01*
X111656667Y-96524819D01*
X111704286Y-96620057D01*
X111751905Y-96810533D01*
X111751905Y-97048629D01*
X111704286Y-97239105D01*
X111656667Y-97334343D01*
X111609048Y-97381962D01*
X111513810Y-97429581D01*
X111418571Y-97429581D01*
X111323333Y-97381962D01*
X111275714Y-97334343D01*
X111228095Y-97239105D01*
X111180476Y-97048629D01*
X111180476Y-96810533D01*
X111228095Y-96620057D01*
X111275714Y-96524819D01*
X111323333Y-96477200D01*
X111418571Y-96429581D01*
X109745543Y-109062781D02*
X109412209Y-108586590D01*
X109174114Y-109062781D02*
X109174114Y-108062781D01*
X109555067Y-108062781D01*
X109650305Y-108110400D01*
X109697924Y-108158019D01*
X109745543Y-108253257D01*
X109745543Y-108396114D01*
X109697924Y-108491352D01*
X109650305Y-108538971D01*
X109555067Y-108586590D01*
X109174114Y-108586590D01*
X110697924Y-109062781D02*
X110126495Y-109062781D01*
X110412209Y-109062781D02*
X110412209Y-108062781D01*
X110316971Y-108205638D01*
X110221733Y-108300876D01*
X110126495Y-108348495D01*
X111650305Y-109062781D02*
X111078876Y-109062781D01*
X111364590Y-109062781D02*
X111364590Y-108062781D01*
X111269352Y-108205638D01*
X111174114Y-108300876D01*
X111078876Y-108348495D01*
X116911381Y-97035857D02*
X116435190Y-97369191D01*
X116911381Y-97607286D02*
X115911381Y-97607286D01*
X115911381Y-97226333D01*
X115959000Y-97131095D01*
X116006619Y-97083476D01*
X116101857Y-97035857D01*
X116244714Y-97035857D01*
X116339952Y-97083476D01*
X116387571Y-97131095D01*
X116435190Y-97226333D01*
X116435190Y-97607286D01*
X116911381Y-96083476D02*
X116911381Y-96654905D01*
X116911381Y-96369191D02*
X115911381Y-96369191D01*
X116054238Y-96464429D01*
X116149476Y-96559667D01*
X116197095Y-96654905D01*
X116006619Y-95702524D02*
X115959000Y-95654905D01*
X115911381Y-95559667D01*
X115911381Y-95321571D01*
X115959000Y-95226333D01*
X116006619Y-95178714D01*
X116101857Y-95131095D01*
X116197095Y-95131095D01*
X116339952Y-95178714D01*
X116911381Y-95750143D01*
X116911381Y-95131095D01*
X116974881Y-108910357D02*
X116498690Y-109243691D01*
X116974881Y-109481786D02*
X115974881Y-109481786D01*
X115974881Y-109100833D01*
X116022500Y-109005595D01*
X116070119Y-108957976D01*
X116165357Y-108910357D01*
X116308214Y-108910357D01*
X116403452Y-108957976D01*
X116451071Y-109005595D01*
X116498690Y-109100833D01*
X116498690Y-109481786D01*
X116974881Y-107957976D02*
X116974881Y-108529405D01*
X116974881Y-108243691D02*
X115974881Y-108243691D01*
X116117738Y-108338929D01*
X116212976Y-108434167D01*
X116260595Y-108529405D01*
X115974881Y-107624643D02*
X115974881Y-107005595D01*
X116355833Y-107338929D01*
X116355833Y-107196071D01*
X116403452Y-107100833D01*
X116451071Y-107053214D01*
X116546310Y-107005595D01*
X116784405Y-107005595D01*
X116879643Y-107053214D01*
X116927262Y-107100833D01*
X116974881Y-107196071D01*
X116974881Y-107481786D01*
X116927262Y-107577024D01*
X116879643Y-107624643D01*
X118546643Y-93098881D02*
X118213309Y-92622690D01*
X117975214Y-93098881D02*
X117975214Y-92098881D01*
X118356167Y-92098881D01*
X118451405Y-92146500D01*
X118499024Y-92194119D01*
X118546643Y-92289357D01*
X118546643Y-92432214D01*
X118499024Y-92527452D01*
X118451405Y-92575071D01*
X118356167Y-92622690D01*
X117975214Y-92622690D01*
X119499024Y-93098881D02*
X118927595Y-93098881D01*
X119213309Y-93098881D02*
X119213309Y-92098881D01*
X119118071Y-92241738D01*
X119022833Y-92336976D01*
X118927595Y-92384595D01*
X120356167Y-92432214D02*
X120356167Y-93098881D01*
X120118071Y-92051262D02*
X119879976Y-92765548D01*
X120499024Y-92765548D01*
X115371643Y-105989381D02*
X115038309Y-105513190D01*
X114800214Y-105989381D02*
X114800214Y-104989381D01*
X115181167Y-104989381D01*
X115276405Y-105037000D01*
X115324024Y-105084619D01*
X115371643Y-105179857D01*
X115371643Y-105322714D01*
X115324024Y-105417952D01*
X115276405Y-105465571D01*
X115181167Y-105513190D01*
X114800214Y-105513190D01*
X116324024Y-105989381D02*
X115752595Y-105989381D01*
X116038309Y-105989381D02*
X116038309Y-104989381D01*
X115943071Y-105132238D01*
X115847833Y-105227476D01*
X115752595Y-105275095D01*
X117228786Y-104989381D02*
X116752595Y-104989381D01*
X116704976Y-105465571D01*
X116752595Y-105417952D01*
X116847833Y-105370333D01*
X117085929Y-105370333D01*
X117181167Y-105417952D01*
X117228786Y-105465571D01*
X117276405Y-105560810D01*
X117276405Y-105798905D01*
X117228786Y-105894143D01*
X117181167Y-105941762D01*
X117085929Y-105989381D01*
X116847833Y-105989381D01*
X116752595Y-105941762D01*
X116704976Y-105894143D01*
X95572351Y-91926689D02*
X95572351Y-92736213D01*
X95619970Y-92831451D01*
X95667589Y-92879070D01*
X95762827Y-92926689D01*
X95953304Y-92926689D01*
X96048542Y-92879070D01*
X96096161Y-92831451D01*
X96143780Y-92736213D01*
X96143780Y-91926689D01*
X97143780Y-92926689D02*
X96572351Y-92926689D01*
X96858065Y-92926689D02*
X96858065Y-91926689D01*
X96762827Y-92069546D01*
X96667589Y-92164784D01*
X96572351Y-92212403D01*
X95656495Y-103541581D02*
X95656495Y-104351105D01*
X95704114Y-104446343D01*
X95751733Y-104493962D01*
X95846971Y-104541581D01*
X96037448Y-104541581D01*
X96132686Y-104493962D01*
X96180305Y-104446343D01*
X96227924Y-104351105D01*
X96227924Y-103541581D01*
X96656495Y-103636819D02*
X96704114Y-103589200D01*
X96799352Y-103541581D01*
X97037448Y-103541581D01*
X97132686Y-103589200D01*
X97180305Y-103636819D01*
X97227924Y-103732057D01*
X97227924Y-103827295D01*
X97180305Y-103970152D01*
X96608876Y-104541581D01*
X97227924Y-104541581D01*
X95656495Y-115022381D02*
X95656495Y-115831905D01*
X95704114Y-115927143D01*
X95751733Y-115974762D01*
X95846971Y-116022381D01*
X96037448Y-116022381D01*
X96132686Y-115974762D01*
X96180305Y-115927143D01*
X96227924Y-115831905D01*
X96227924Y-115022381D01*
X96608876Y-115022381D02*
X97227924Y-115022381D01*
X96894590Y-115403333D01*
X97037448Y-115403333D01*
X97132686Y-115450952D01*
X97180305Y-115498571D01*
X97227924Y-115593810D01*
X97227924Y-115831905D01*
X97180305Y-115927143D01*
X97132686Y-115974762D01*
X97037448Y-116022381D01*
X96751733Y-116022381D01*
X96656495Y-115974762D01*
X96608876Y-115927143D01*
X115926495Y-101712781D02*
X115926495Y-102522305D01*
X115974114Y-102617543D01*
X116021733Y-102665162D01*
X116116971Y-102712781D01*
X116307448Y-102712781D01*
X116402686Y-102665162D01*
X116450305Y-102617543D01*
X116497924Y-102522305D01*
X116497924Y-101712781D01*
X117402686Y-102046114D02*
X117402686Y-102712781D01*
X117164590Y-101665162D02*
X116926495Y-102379448D01*
X117545543Y-102379448D01*
X115977295Y-113396781D02*
X115977295Y-114206305D01*
X116024914Y-114301543D01*
X116072533Y-114349162D01*
X116167771Y-114396781D01*
X116358248Y-114396781D01*
X116453486Y-114349162D01*
X116501105Y-114301543D01*
X116548724Y-114206305D01*
X116548724Y-113396781D01*
X117501105Y-113396781D02*
X117024914Y-113396781D01*
X116977295Y-113872971D01*
X117024914Y-113825352D01*
X117120152Y-113777733D01*
X117358248Y-113777733D01*
X117453486Y-113825352D01*
X117501105Y-113872971D01*
X117548724Y-113968210D01*
X117548724Y-114206305D01*
X117501105Y-114301543D01*
X117453486Y-114349162D01*
X117358248Y-114396781D01*
X117120152Y-114396781D01*
X117024914Y-114349162D01*
X116977295Y-114301543D01*
M02*
